<svg width="133" height="112" viewBox="0 0 133 112" fill="none" xmlns="http://www.w3.org/2000/svg">
<path d="M122.539 39.3966H121.095C121.015 39.3966 120.939 39.365 120.883 39.3087C120.827 39.2525 120.795 39.1762 120.795 39.0966C120.795 39.017 120.827 38.9407 120.883 38.8844C120.939 38.8282 121.015 38.7966 121.095 38.7966H122.539C122.654 38.7966 122.768 38.7942 122.882 38.7904C122.962 38.7875 123.039 38.8164 123.097 38.8706C123.156 38.9248 123.19 39 123.193 39.0796C123.196 39.1591 123.167 39.2366 123.113 39.2949C123.058 39.3532 122.983 39.3875 122.904 39.3904C122.782 39.3951 122.661 39.3966 122.539 39.3966V39.3966ZM119.897 39.3966H118.1C118.021 39.3966 117.944 39.365 117.888 39.3087C117.832 39.2525 117.8 39.1762 117.8 39.0966C117.8 39.017 117.832 38.9407 117.888 38.8844C117.944 38.8282 118.021 38.7966 118.1 38.7966H119.897C119.977 38.7966 120.053 38.8282 120.109 38.8844C120.166 38.9407 120.197 39.017 120.197 39.0966C120.197 39.1762 120.166 39.2525 120.109 39.3087C120.053 39.365 119.977 39.3966 119.897 39.3966ZM116.902 39.3966H115.105C115.025 39.3966 114.949 39.365 114.892 39.3087C114.836 39.2525 114.805 39.1762 114.805 39.0966C114.805 39.017 114.836 38.9407 114.892 38.8844C114.949 38.8282 115.025 38.7966 115.105 38.7966H116.902C116.981 38.7966 117.057 38.8282 117.114 38.8844C117.17 38.9407 117.202 39.017 117.202 39.0966C117.202 39.1762 117.17 39.2525 117.114 39.3087C117.057 39.365 116.981 39.3966 116.902 39.3966ZM113.906 39.3966H112.109C112.029 39.3966 111.953 39.365 111.897 39.3087C111.841 39.2525 111.809 39.1762 111.809 39.0966C111.809 39.017 111.841 38.9407 111.897 38.8844C111.953 38.8282 112.029 38.7966 112.109 38.7966H113.906C113.986 38.7966 114.062 38.8282 114.118 38.8844C114.174 38.9407 114.206 39.017 114.206 39.0966C114.206 39.1762 114.174 39.2525 114.118 39.3087C114.062 39.365 113.986 39.3966 113.906 39.3966ZM110.91 39.3966H109.232C109.152 39.3966 109.076 39.365 109.02 39.3087C108.963 39.2525 108.932 39.1762 108.932 39.0966C108.932 39.017 108.963 38.9407 109.02 38.8844C109.076 38.8282 109.152 38.7966 109.232 38.7966H110.91C110.99 38.7966 111.066 38.8282 111.123 38.8844C111.179 38.9407 111.21 39.017 111.21 39.0966C111.21 39.1762 111.179 39.2525 111.123 39.3087C111.066 39.365 110.99 39.3966 110.91 39.3966V39.3966ZM124.084 39.2798C124.008 39.2801 123.935 39.2516 123.879 39.2C123.824 39.1484 123.79 39.0777 123.784 39.0019C123.778 38.9262 123.802 38.8511 123.849 38.7919C123.897 38.7327 123.965 38.6938 124.04 38.6829C124.615 38.5949 125.181 38.456 125.731 38.2677C125.805 38.2471 125.884 38.2556 125.952 38.2915C126.02 38.3273 126.072 38.3877 126.097 38.4603C126.121 38.5329 126.117 38.6123 126.086 38.6821C126.054 38.752 125.997 38.807 125.925 38.836C125.344 39.0347 124.74 39.1832 124.131 39.276C124.115 39.2787 124.1 39.28 124.084 39.2798V39.2798ZM126.936 38.3976C126.868 38.3977 126.802 38.3746 126.749 38.3322C126.696 38.2898 126.658 38.2305 126.643 38.1641C126.628 38.0978 126.636 38.0282 126.666 37.9669C126.695 37.9057 126.745 37.8563 126.806 37.8269C127.331 37.5746 127.832 37.2762 128.304 36.9353C128.369 36.8899 128.449 36.8718 128.527 36.8849C128.604 36.8981 128.674 36.9414 128.72 37.0056C128.766 37.0698 128.785 37.1495 128.773 37.2276C128.761 37.3056 128.718 37.3757 128.654 37.4225C128.154 37.7836 127.62 38.1022 127.066 38.3682C127.025 38.3875 126.981 38.3975 126.936 38.3976V38.3976ZM129.407 36.7219C129.346 36.7219 129.287 36.7036 129.237 36.6695C129.188 36.6353 129.149 36.5869 129.127 36.5306C129.105 36.4743 129.101 36.4126 129.115 36.3538C129.128 36.2949 129.16 36.2416 129.204 36.2007C129.633 35.8065 130.027 35.3754 130.381 34.9125C130.405 34.8813 130.435 34.8551 130.469 34.8354C130.503 34.8158 130.541 34.803 130.58 34.7979C130.619 34.7928 130.659 34.7955 130.697 34.8057C130.735 34.816 130.77 34.8336 130.802 34.8576C130.833 34.8816 130.859 34.9115 130.879 34.9457C130.898 34.9798 130.911 35.0175 130.916 35.0566C130.921 35.0956 130.919 35.1353 130.908 35.1733C130.898 35.2114 130.881 35.247 130.857 35.2783C130.481 35.7691 130.063 36.2261 129.608 36.6438C129.553 36.6946 129.481 36.7225 129.407 36.7219V36.7219ZM131.291 34.4006C131.238 34.4005 131.186 34.3863 131.14 34.3595C131.095 34.3328 131.057 34.2944 131.031 34.2483C131.005 34.2022 130.991 34.15 130.992 34.097C130.993 34.044 131.007 33.9922 131.034 33.9467C131.331 33.4449 131.586 32.9152 131.788 32.3724C131.802 32.3355 131.823 32.3017 131.85 32.273C131.877 32.2442 131.909 32.2211 131.945 32.2048C131.981 32.1885 132.02 32.1795 132.059 32.1782C132.098 32.1769 132.138 32.1833 132.175 32.1972C132.211 32.2111 132.245 32.2321 132.274 32.259C132.303 32.2859 132.326 32.3182 132.342 32.3541C132.358 32.3899 132.367 32.4286 132.369 32.468C132.37 32.5074 132.364 32.5466 132.35 32.5835C132.133 33.1623 131.865 33.7209 131.55 34.2529C131.524 34.298 131.486 34.3353 131.44 34.3612C131.395 34.3871 131.343 34.4007 131.291 34.4006V34.4006ZM132.422 31.6308C132.377 31.6308 132.332 31.6205 132.291 31.6006C132.25 31.5807 132.214 31.5517 132.186 31.5159C132.158 31.48 132.138 31.4382 132.129 31.3937C132.119 31.3492 132.12 31.3031 132.131 31.2589C132.269 30.6959 132.357 30.116 132.394 29.533C132.399 29.4538 132.436 29.3799 132.495 29.3273C132.555 29.2748 132.632 29.2478 132.712 29.2523C132.791 29.2574 132.865 29.2939 132.917 29.3536C132.97 29.4134 132.997 29.4915 132.991 29.5708C132.952 30.188 132.859 30.8004 132.712 31.4011C132.697 31.4665 132.66 31.5246 132.607 31.5663C132.555 31.608 132.49 31.6307 132.422 31.6308V31.6308ZM132.7 28.653C132.623 28.6529 132.549 28.6233 132.494 28.5704C132.438 28.5174 132.405 28.4452 132.401 28.3684C132.37 27.7861 132.289 27.2076 132.158 26.6394C132.149 26.6012 132.148 26.5615 132.154 26.5227C132.16 26.4839 132.174 26.4468 132.195 26.4134C132.216 26.38 132.243 26.351 132.275 26.3281C132.307 26.3052 132.343 26.2888 132.381 26.2799C132.42 26.2709 132.459 26.2696 132.498 26.276C132.537 26.2824 132.574 26.2964 132.607 26.3171C132.641 26.3379 132.67 26.365 132.693 26.397C132.716 26.4289 132.732 26.4651 132.741 26.5033C132.88 27.1026 132.967 27.7197 132.999 28.3367C133.001 28.3761 132.996 28.4155 132.982 28.4526C132.969 28.4898 132.949 28.524 132.923 28.5533C132.896 28.5826 132.864 28.6064 132.829 28.6234C132.793 28.6403 132.755 28.6501 132.715 28.6522L132.7 28.653V28.653ZM132.109 25.7208C132.048 25.7209 131.987 25.7019 131.937 25.6665C131.887 25.631 131.848 25.5809 131.828 25.5229C131.629 24.975 131.383 24.4456 131.092 23.9408C131.053 23.8718 131.042 23.7899 131.062 23.713C131.083 23.6361 131.133 23.5704 131.201 23.5302C131.235 23.5103 131.273 23.4973 131.312 23.492C131.351 23.4867 131.391 23.4892 131.429 23.4993C131.467 23.5094 131.502 23.527 131.534 23.551C131.565 23.5751 131.591 23.605 131.61 23.6392C131.918 24.1727 132.181 24.738 132.391 25.3179C132.407 25.3632 132.412 25.4118 132.406 25.4594C132.399 25.5071 132.381 25.5525 132.354 25.592C132.326 25.6314 132.29 25.6637 132.247 25.6861C132.205 25.7085 132.157 25.7204 132.109 25.7208V25.7208ZM130.693 23.0894C130.646 23.0895 130.6 23.0786 130.558 23.0577C130.516 23.0367 130.48 23.0063 130.452 22.9688C130.104 22.5019 129.715 22.0664 129.291 21.6674C129.233 21.6128 129.199 21.5375 129.196 21.458C129.194 21.3785 129.223 21.3012 129.277 21.2429C129.304 21.214 129.336 21.1907 129.372 21.1744C129.407 21.1581 129.446 21.149 129.485 21.1477C129.525 21.1464 129.564 21.1529 129.601 21.1669C129.637 21.1808 129.671 21.2019 129.7 21.229C130.15 21.6522 130.562 22.1141 130.932 22.6092C130.964 22.6539 130.984 22.7067 130.989 22.7619C130.994 22.8171 130.983 22.8726 130.959 22.9222C130.934 22.9718 130.896 23.0137 130.849 23.0432C130.802 23.0727 130.748 23.0887 130.693 23.0894V23.0894ZM128.575 20.98C128.511 20.9798 128.448 20.9592 128.397 20.9212C127.929 20.575 127.431 20.2707 126.91 20.0119C126.874 19.9948 126.842 19.9707 126.815 19.9411C126.789 19.9115 126.768 19.8769 126.755 19.8394C126.742 19.8019 126.737 19.7621 126.739 19.7224C126.742 19.6828 126.752 19.644 126.77 19.6083C126.787 19.5727 126.812 19.5409 126.842 19.5148C126.872 19.4887 126.907 19.4688 126.944 19.4562C126.982 19.4437 127.022 19.4388 127.061 19.4418C127.101 19.4448 127.14 19.4556 127.175 19.4737C127.726 19.7466 128.257 20.0714 128.753 20.4379C128.803 20.4758 128.84 20.5285 128.858 20.5884C128.877 20.6484 128.877 20.7127 128.857 20.7724C128.838 20.8322 128.8 20.8843 128.749 20.9215C128.699 20.9587 128.637 20.9791 128.575 20.98V20.98ZM125.939 19.575C125.905 19.575 125.872 19.5693 125.84 19.558C125.291 19.3635 124.727 19.2181 124.153 19.1234C124.075 19.1103 124.005 19.0667 123.958 19.002C123.912 18.9373 123.894 18.8569 123.907 18.7785C123.912 18.7394 123.926 18.7019 123.946 18.6681C123.967 18.6344 123.994 18.6051 124.026 18.582C124.058 18.559 124.095 18.5426 124.133 18.5338C124.172 18.5251 124.212 18.5241 124.251 18.5311C124.858 18.6308 125.46 18.7862 126.04 18.9919C126.105 19.0169 126.16 19.0638 126.194 19.1245C126.229 19.1852 126.241 19.2559 126.229 19.3247C126.217 19.3935 126.182 19.4561 126.129 19.5017C126.076 19.5473 126.009 19.5732 125.939 19.575ZM123.011 19.002H122.996C122.844 18.9949 122.691 18.9913 122.538 18.9912H121.213C121.134 18.9912 121.057 18.9596 121.001 18.9033C120.945 18.847 120.913 18.7707 120.913 18.6911C120.913 18.6116 120.945 18.5353 121.001 18.479C121.057 18.4227 121.134 18.3911 121.213 18.3911H122.538C122.701 18.3911 122.863 18.395 123.024 18.4019C123.104 18.4037 123.179 18.437 123.234 18.4945C123.289 18.552 123.319 18.629 123.318 18.7085C123.316 18.7881 123.283 18.8637 123.225 18.9188C123.168 18.9738 123.091 19.0037 123.011 19.002V19.002ZM120.015 18.9912H118.218C118.139 18.9912 118.063 18.9596 118.006 18.9033C117.95 18.847 117.918 18.7707 117.918 18.6911C117.918 18.6116 117.95 18.5353 118.006 18.479C118.063 18.4227 118.139 18.3911 118.218 18.3911H120.015C120.095 18.3911 120.171 18.4227 120.228 18.479C120.284 18.5353 120.316 18.6116 120.316 18.6911C120.316 18.7707 120.284 18.847 120.228 18.9033C120.171 18.9596 120.095 18.9912 120.015 18.9912ZM117.02 18.9912H115.223C115.143 18.9912 115.067 18.9596 115.011 18.9033C114.954 18.847 114.923 18.7707 114.923 18.6911C114.923 18.6116 114.954 18.5353 115.011 18.479C115.067 18.4227 115.143 18.3911 115.223 18.3911H117.02C117.099 18.3911 117.176 18.4227 117.232 18.479C117.288 18.5353 117.32 18.6116 117.32 18.6911C117.32 18.7707 117.288 18.847 117.232 18.9033C117.176 18.9596 117.099 18.9912 117.02 18.9912ZM114.024 18.9912H112.227C112.148 18.9912 112.071 18.9596 112.015 18.9033C111.959 18.847 111.927 18.7707 111.927 18.6911C111.927 18.6116 111.959 18.5353 112.015 18.479C112.071 18.4227 112.148 18.3911 112.227 18.3911H114.024C114.104 18.3911 114.18 18.4227 114.236 18.479C114.293 18.5353 114.324 18.6116 114.324 18.6911C114.324 18.7707 114.293 18.847 114.236 18.9033C114.18 18.9596 114.104 18.9912 114.024 18.9912ZM111.029 18.9912H109.232C109.152 18.9912 109.076 18.9596 109.02 18.9033C108.963 18.847 108.932 18.7707 108.932 18.6911C108.932 18.6116 108.963 18.5353 109.02 18.479C109.076 18.4227 109.152 18.3911 109.232 18.3911H111.029C111.108 18.3911 111.185 18.4227 111.241 18.479C111.297 18.5353 111.329 18.6116 111.329 18.6911C111.329 18.7707 111.297 18.847 111.241 18.9033C111.185 18.9596 111.108 18.9912 111.029 18.9912Z" fill="#FE5007"/>
<path d="M65.6193 107.51H65.02V106.678C65.02 106.599 65.0515 106.523 65.1076 106.467C65.1638 106.411 65.2399 106.379 65.3192 106.379C65.3986 106.379 65.4747 106.411 65.5308 106.467C65.587 106.523 65.6185 106.599 65.6185 106.678V107.51H65.6193ZM65.3192 105.78C65.2398 105.78 65.1637 105.748 65.1076 105.692C65.0515 105.635 65.02 105.559 65.02 105.48V103.68C65.02 103.6 65.0515 103.524 65.1076 103.468C65.1638 103.412 65.2399 103.38 65.3192 103.38C65.3986 103.38 65.4747 103.412 65.5308 103.468C65.587 103.524 65.6185 103.6 65.6185 103.68V105.48C65.6186 105.519 65.6109 105.558 65.5959 105.595C65.5809 105.631 65.5589 105.664 65.5311 105.692C65.5033 105.72 65.4703 105.742 65.4339 105.757C65.3976 105.772 65.3586 105.78 65.3192 105.78V105.78ZM65.3192 102.78C65.2398 102.779 65.1637 102.748 65.1076 102.691C65.0515 102.635 65.02 102.559 65.02 102.48V100.679C65.02 100.599 65.0515 100.523 65.1076 100.467C65.1638 100.411 65.2399 100.379 65.3192 100.379C65.3986 100.379 65.4747 100.411 65.5308 100.467C65.587 100.523 65.6185 100.599 65.6185 100.679V102.48C65.6187 102.519 65.6111 102.558 65.5961 102.594C65.5812 102.631 65.5592 102.664 65.5313 102.692C65.5035 102.72 65.4705 102.742 65.4341 102.757C65.3977 102.772 65.3586 102.78 65.3192 102.78V102.78ZM65.3192 99.7786C65.2398 99.7784 65.1637 99.7467 65.1076 99.6905C65.0515 99.6342 65.02 99.558 65.02 99.4786V97.6777C65.02 97.5983 65.0515 97.5222 65.1076 97.4661C65.1638 97.41 65.2399 97.3784 65.3192 97.3784C65.3986 97.3784 65.4747 97.41 65.5308 97.4661C65.587 97.5222 65.6185 97.5983 65.6185 97.6777V99.4786C65.6186 99.518 65.6109 99.557 65.5959 99.5934C65.5809 99.6297 65.5589 99.6628 65.5311 99.6907C65.5033 99.7186 65.4703 99.7407 65.4339 99.7558C65.3976 99.7708 65.3586 99.7786 65.3192 99.7786V99.7786ZM65.3192 96.7768C65.2398 96.7766 65.1637 96.7449 65.1076 96.6887C65.0515 96.6325 65.02 96.5562 65.02 96.4768V94.6759C65.02 94.5965 65.0515 94.5204 65.1076 94.4643C65.1638 94.4082 65.2399 94.3767 65.3192 94.3767C65.3986 94.3767 65.4747 94.4082 65.5308 94.4643C65.587 94.5204 65.6185 94.5965 65.6185 94.6759V96.4768C65.6186 96.5162 65.6109 96.5552 65.5959 96.5916C65.5809 96.628 65.5589 96.6611 65.5311 96.6889C65.5033 96.7168 65.4703 96.7389 65.4339 96.754C65.3976 96.7691 65.3586 96.7768 65.3192 96.7768V96.7768ZM65.3185 93.7751C65.2392 93.7749 65.1632 93.7433 65.1071 93.6872C65.051 93.6311 65.0194 93.5551 65.0192 93.4758C65.0164 92.8822 64.9947 92.2888 64.9543 91.6966C64.9493 91.6561 64.9526 91.6152 64.9639 91.5761C64.9753 91.537 64.9945 91.5006 65.0203 91.4691C65.0462 91.4377 65.0782 91.4119 65.1144 91.3932C65.1505 91.3745 65.1901 91.3634 65.2307 91.3605C65.2713 91.3576 65.3121 91.363 65.3506 91.3764C65.389 91.3897 65.4243 91.4108 65.4544 91.4383C65.4845 91.4657 65.5086 91.499 65.5254 91.5361C65.5422 91.5732 65.5512 91.6133 65.552 91.654C65.593 92.2401 65.6154 92.8526 65.6193 93.4727C65.6195 93.5121 65.6119 93.5512 65.597 93.5877C65.5821 93.6241 65.5602 93.6573 65.5325 93.6853C65.5048 93.7133 65.4718 93.7356 65.4355 93.7509C65.3992 93.7661 65.3602 93.7741 65.3208 93.7743L65.3185 93.7751ZM65.1391 90.7818C65.0658 90.7816 64.9952 90.7545 64.9405 90.7058C64.8858 90.6571 64.8508 90.5901 64.8421 90.5173C64.7721 89.9307 64.6764 89.3473 64.5553 88.769C64.547 88.7305 64.5465 88.6907 64.5536 88.6519C64.5608 88.6132 64.5755 88.5762 64.5969 88.5432C64.6184 88.5101 64.6461 88.4816 64.6786 88.4592C64.711 88.4369 64.7475 88.4211 64.7861 88.4129C64.8246 88.4047 64.8644 88.4041 64.9031 88.4113C64.9419 88.4184 64.9789 88.4331 65.0119 88.4546C65.045 88.476 65.0735 88.5037 65.0959 88.5362C65.1182 88.5687 65.1339 88.6052 65.1422 88.6437C65.2636 89.2183 65.3633 89.8237 65.4375 90.4446C65.4428 90.4869 65.439 90.5298 65.4264 90.5705C65.4138 90.6112 65.3927 90.6487 65.3645 90.6806C65.3362 90.7125 65.3015 90.7381 65.2627 90.7555C65.2238 90.7729 65.1817 90.7819 65.1391 90.7818V90.7818ZM64.5599 87.8426C64.4949 87.8425 64.4317 87.8212 64.3798 87.782C64.3279 87.7428 64.2902 87.6879 64.2723 87.6254C64.1119 87.0604 63.918 86.5055 63.6915 85.9636C63.6747 85.9271 63.6654 85.8877 63.6641 85.8475C63.6628 85.8073 63.6696 85.7673 63.6841 85.7299C63.6986 85.6924 63.7205 85.6582 63.7484 85.6293C63.7763 85.6004 63.8098 85.5775 63.8468 85.5618C63.8838 85.5461 63.9235 85.538 63.9637 85.538C64.0039 85.5379 64.0436 85.5459 64.0807 85.5616C64.1177 85.5772 64.1512 85.6001 64.1792 85.6289C64.2072 85.6577 64.2291 85.6919 64.2436 85.7293C64.4733 86.2745 64.6767 86.856 64.8491 87.4599C64.8616 87.5046 64.8636 87.5516 64.855 87.5972C64.8463 87.6428 64.8273 87.6858 64.7993 87.7229C64.7713 87.7599 64.7351 87.79 64.6936 87.8108C64.6521 87.8315 64.6063 87.8424 64.5599 87.8426V87.8426ZM63.4526 85.0659C63.3983 85.0659 63.345 85.0512 63.2984 85.0233C63.2518 84.9954 63.2137 84.9553 63.1881 84.9074C62.9131 84.3925 62.5985 83.8997 62.2471 83.4335C62.2059 83.3698 62.1903 83.2929 62.2034 83.2182C62.2165 83.1434 62.2574 83.0764 62.3178 83.0306C62.3783 82.9847 62.4538 82.9633 62.5293 82.9708C62.6048 82.9783 62.6747 83.014 62.725 83.0709C63.0884 83.5518 63.4224 84.0746 63.7163 84.6236C63.7406 84.6693 63.7528 84.7205 63.7516 84.7723C63.7503 84.8241 63.7357 84.8746 63.7092 84.9191C63.6827 84.9636 63.6451 85.0005 63.6002 85.0262C63.5552 85.0519 63.5044 85.0656 63.4526 85.0659V85.0659ZM61.7128 82.6386C61.6721 82.6387 61.6318 82.6304 61.5945 82.6143C61.5571 82.5982 61.5234 82.5746 61.4955 82.5451C61.0948 82.1221 60.6595 81.7334 60.1941 81.3829C60.1307 81.3348 60.0888 81.2636 60.0777 81.1848C60.0665 81.106 60.087 81.026 60.1346 80.9622C60.1582 80.9307 60.1878 80.9041 60.2217 80.884C60.2556 80.8639 60.2931 80.8508 60.3321 80.8452C60.3711 80.8397 60.4109 80.8419 60.449 80.8518C60.4872 80.8616 60.523 80.8789 60.5544 80.9027C61.0463 81.2737 61.5066 81.6846 61.9308 82.1314C61.9708 82.1742 61.9974 82.2277 62.0074 82.2854C62.0174 82.343 62.0105 82.4024 61.9874 82.4562C61.9642 82.51 61.926 82.5558 61.8772 82.5882C61.8284 82.6206 61.7713 82.6381 61.7128 82.6386V82.6386ZM59.3799 80.7751C59.3259 80.775 59.273 80.7603 59.2268 80.7326C58.7242 80.4329 58.2009 80.1693 57.6609 79.9438C57.5916 79.9104 57.5378 79.8517 57.5104 79.7798C57.4831 79.7078 57.4844 79.6282 57.514 79.5572C57.5436 79.4861 57.5993 79.4292 57.6697 79.398C57.74 79.3668 57.8196 79.3637 57.8921 79.3894C58.4697 79.6314 59.0218 79.9098 59.5337 80.2168C59.5899 80.2507 59.6334 80.302 59.6577 80.3629C59.682 80.4238 59.6857 80.491 59.6682 80.5542C59.6508 80.6174 59.6132 80.6732 59.5612 80.7131C59.5091 80.753 59.4454 80.7747 59.3799 80.7751V80.7751ZM56.6534 79.551C56.6218 79.5511 56.5905 79.5461 56.5606 79.5363C56.0002 79.3553 55.4309 79.2035 54.8548 79.0817C54.7768 79.065 54.7087 79.0182 54.6653 78.9513C54.622 78.8845 54.607 78.8031 54.6236 78.7252C54.6402 78.6473 54.6871 78.5791 54.7539 78.5358C54.8208 78.4924 54.9021 78.4774 54.98 78.494C55.5955 78.6254 56.1902 78.784 56.7462 78.9649C56.8147 78.9865 56.8732 79.032 56.911 79.0932C56.9488 79.1543 56.9634 79.2269 56.9522 79.2979C56.941 79.3689 56.9046 79.4335 56.8498 79.48C56.7949 79.5264 56.7252 79.5516 56.6534 79.551ZM53.739 78.8729C53.7237 78.8727 53.7084 78.8714 53.6933 78.869C53.1343 78.7832 52.5404 78.7144 51.928 78.6641C51.8505 78.6552 51.7795 78.6164 51.73 78.5561C51.6805 78.4958 51.6563 78.4187 51.6627 78.3409C51.669 78.2631 51.7053 78.1909 51.7639 78.1394C51.8225 78.0879 51.8988 78.0611 51.9767 78.0648C52.603 78.1166 53.2116 78.187 53.7838 78.2752C53.8604 78.2845 53.9305 78.3229 53.9795 78.3826C54.0284 78.4422 54.0525 78.5185 54.0468 78.5954C54.041 78.6724 54.0058 78.7442 53.9485 78.7958C53.8911 78.8475 53.8161 78.8751 53.739 78.8729V78.8729ZM50.7557 78.5906H50.7418C50.1465 78.565 49.5507 78.5513 48.9548 78.5497C48.9154 78.5496 48.8763 78.5418 48.8399 78.5266C48.8035 78.5115 48.7704 78.4893 48.7425 78.4614C48.7147 78.4335 48.6926 78.4003 48.6775 78.3638C48.6625 78.3274 48.6547 78.2883 48.6548 78.2489C48.6549 78.2094 48.6627 78.1703 48.6778 78.1339C48.693 78.0975 48.7151 78.0644 48.7431 78.0365C48.771 78.0087 48.8041 77.9866 48.8406 77.9716C48.8771 77.9565 48.9161 77.9488 48.9556 77.9488H48.9571C49.5417 77.9511 50.148 77.9627 50.7681 77.9906C50.8477 77.9922 50.9233 78.0254 50.9785 78.0828C51.0336 78.1403 51.0636 78.2172 51.062 78.2968C51.0603 78.3764 51.0271 78.452 50.9697 78.5071C50.9123 78.5622 50.8353 78.5923 50.7557 78.5906V78.5906ZM19.8889 78.579C19.5873 78.579 19.2865 78.5721 18.9873 78.5582C18.9479 78.5563 18.9092 78.5468 18.8735 78.53C18.8378 78.5132 18.8058 78.4896 18.7792 78.4604C18.7527 78.4313 18.7321 78.3972 18.7187 78.3601C18.7053 78.323 18.6994 78.2836 18.7012 78.2442C18.703 78.2048 18.7126 78.1662 18.7294 78.1305C18.7461 78.0948 18.7698 78.0627 18.7989 78.0361C18.8281 78.0096 18.8622 77.989 18.8993 77.9756C18.9364 77.9622 18.9757 77.9563 19.0151 77.9581C19.3105 77.9713 19.6098 77.9744 19.9075 77.9782H20.7983C20.8778 77.9782 20.9541 78.0098 21.0104 78.0661C21.0667 78.1224 21.0983 78.1987 21.0983 78.2782C21.0983 78.3578 21.0667 78.4341 21.0104 78.4904C20.9541 78.5467 20.8778 78.5783 20.7983 78.5783H19.9075L19.8889 78.579V78.579ZM44.763 78.579H42.966C42.8864 78.579 42.8101 78.5474 42.7538 78.4912C42.6975 78.4349 42.6659 78.3586 42.6659 78.279C42.6659 78.1994 42.6975 78.1231 42.7538 78.0669C42.8101 78.0106 42.8864 77.979 42.966 77.979H44.763C44.8426 77.979 44.9189 78.0106 44.9752 78.0669C45.0314 78.1231 45.063 78.1994 45.063 78.279C45.063 78.3586 45.0314 78.4349 44.9752 78.4912C44.9189 78.5474 44.8426 78.579 44.763 78.579ZM41.7674 78.579H39.9696C39.89 78.579 39.8137 78.5474 39.7574 78.4912C39.7012 78.4349 39.6696 78.3586 39.6696 78.279C39.6696 78.1994 39.7012 78.1231 39.7574 78.0669C39.8137 78.0106 39.89 77.979 39.9696 77.979H41.7666C41.8462 77.9789 41.9226 78.0104 41.9789 78.0666C42.0352 78.1228 42.0669 78.1991 42.067 78.2786C42.0671 78.3582 42.0356 78.4345 41.9794 78.4909C41.9233 78.5472 41.847 78.5789 41.7674 78.579V78.579ZM38.7718 78.579H36.9748C36.8952 78.579 36.8189 78.5474 36.7626 78.4912C36.7064 78.4349 36.6748 78.3586 36.6748 78.279C36.6748 78.1994 36.7064 78.1231 36.7626 78.0669C36.8189 78.0106 36.8952 77.979 36.9748 77.979H38.7718C38.8514 77.979 38.9277 78.0106 38.984 78.0669C39.0402 78.1231 39.0718 78.1994 39.0718 78.279C39.0718 78.3586 39.0402 78.4349 38.984 78.4912C38.9277 78.5474 38.8514 78.579 38.7718 78.579ZM35.7762 78.579H33.9792C33.8996 78.579 33.8233 78.5474 33.767 78.4912C33.7108 78.4349 33.6792 78.3586 33.6792 78.279C33.6792 78.1994 33.7108 78.1231 33.767 78.0669C33.8233 78.0106 33.8996 77.979 33.9792 77.979H35.7762C35.8558 77.979 35.9321 78.0106 35.9884 78.0669C36.0446 78.1231 36.0762 78.1994 36.0762 78.279C36.0762 78.3586 36.0446 78.4349 35.9884 78.4912C35.9321 78.5474 35.8558 78.579 35.7762 78.579V78.579ZM32.7806 78.579H30.9836C30.904 78.579 30.8277 78.5474 30.7714 78.4912C30.7152 78.4349 30.6836 78.3586 30.6836 78.279C30.6836 78.1994 30.7152 78.1231 30.7714 78.0669C30.8277 78.0106 30.904 77.979 30.9836 77.979H32.7806C32.8602 77.979 32.9365 78.0106 32.9928 78.0669C33.049 78.1231 33.0807 78.1994 33.0807 78.279C33.0807 78.3586 33.049 78.4349 32.9928 78.4912C32.9365 78.5474 32.8602 78.579 32.7806 78.579ZM29.785 78.579H27.988C27.9084 78.579 27.8321 78.5474 27.7758 78.4912C27.7196 78.4349 27.688 78.3586 27.688 78.279C27.688 78.1994 27.7196 78.1231 27.7758 78.0669C27.8321 78.0106 27.9084 77.979 27.988 77.979H29.785C29.8646 77.979 29.9409 78.0106 29.9972 78.0669C30.0535 78.1231 30.0851 78.1994 30.0851 78.279C30.0851 78.3586 30.0535 78.4349 29.9972 78.4912C29.9409 78.5474 29.8646 78.579 29.785 78.579V78.579ZM26.7894 78.579H24.9916C24.9121 78.579 24.8357 78.5474 24.7795 78.4912C24.7232 78.4349 24.6916 78.3586 24.6916 78.279C24.6916 78.1994 24.7232 78.1231 24.7795 78.0669C24.8357 78.0106 24.9121 77.979 24.9916 77.979H26.7887C26.8682 77.9789 26.9446 78.0104 27.0009 78.0666C27.0573 78.1228 27.089 78.1991 27.0891 78.2786C27.0892 78.3582 27.0577 78.4345 27.0015 78.4909C26.9453 78.5472 26.869 78.5789 26.7894 78.579V78.579ZM23.7939 78.579H21.9968C21.9172 78.579 21.8409 78.5474 21.7847 78.4912C21.7284 78.4349 21.6968 78.3586 21.6968 78.279C21.6968 78.1994 21.7284 78.1231 21.7847 78.0669C21.8409 78.0106 21.9172 77.979 21.9968 77.979H23.7939C23.8734 77.979 23.9497 78.0106 24.006 78.0669C24.0623 78.1231 24.0939 78.1994 24.0939 78.279C24.0939 78.3586 24.0623 78.4349 24.006 78.4912C23.9497 78.5474 23.8734 78.579 23.7939 78.579ZM45.9616 78.5775C45.8825 78.5775 45.8066 78.5462 45.7505 78.4904C45.6944 78.4346 45.6627 78.3589 45.6623 78.2798C45.6619 78.2404 45.6693 78.2014 45.684 78.1649C45.6987 78.1283 45.7204 78.0951 45.748 78.067C45.7756 78.0389 45.8085 78.0165 45.8447 78.0012C45.881 77.9858 45.9199 77.9777 45.9592 77.9774C46.2647 77.9751 46.5863 77.9705 46.9212 77.9651L47.7563 77.9535C47.8334 77.9564 47.9065 77.9889 47.9604 78.0442C48.0143 78.0995 48.0448 78.1734 48.0457 78.2506C48.0466 78.3278 48.0178 78.4024 47.9652 78.4589C47.9126 78.5154 47.8403 78.5496 47.7632 78.5543L46.9304 78.5651C46.5949 78.5698 46.2716 78.5752 45.9646 78.5775H45.9616V78.5775ZM17.8073 78.4677L17.7748 78.4661C17.1701 78.4015 16.5686 78.3091 15.9724 78.1893C15.8942 78.1737 15.8255 78.1277 15.7813 78.0615C15.737 77.9952 15.7209 77.9141 15.7365 77.8359C15.7521 77.7578 15.7981 77.6891 15.8644 77.6448C15.9306 77.6006 16.0118 77.5845 16.0899 77.6001C16.6644 77.7153 17.2529 77.8058 17.8382 77.8684C17.9173 77.877 17.9897 77.9166 18.0396 77.9785C18.0894 78.0404 18.1127 78.1195 18.1042 78.1986C18.0969 78.2723 18.0625 78.3407 18.0076 78.3904C17.9528 78.4401 17.8814 78.4677 17.8073 78.4677V78.4677ZM14.8651 77.9225C14.8392 77.9226 14.8135 77.9192 14.7885 77.9125C14.2004 77.756 13.6199 77.5726 13.0487 77.3627C12.9739 77.3353 12.9131 77.2794 12.8796 77.2072C12.8461 77.1349 12.8427 77.0524 12.8701 76.9776C12.8974 76.9029 12.9534 76.8421 13.0256 76.8086C13.0978 76.7751 13.1804 76.7716 13.2552 76.799C13.8073 77.0024 14.3748 77.1818 14.9416 77.3318C15.0127 77.3499 15.0747 77.3934 15.1159 77.454C15.157 77.5147 15.1746 77.5884 15.1652 77.6611C15.1557 77.7338 15.12 77.8006 15.0647 77.8487C15.0094 77.8969 14.9384 77.9232 14.8651 77.9225ZM12.0427 76.9343C12.0014 76.9341 11.9606 76.9254 11.9228 76.9088C11.3657 76.6641 10.8202 76.3937 10.2882 76.0984C10.2226 76.0578 10.1751 75.9934 10.1556 75.9188C10.1361 75.8441 10.1461 75.7648 10.1834 75.6972C10.2208 75.6297 10.2827 75.5791 10.3563 75.5559C10.4299 75.5327 10.5096 75.5387 10.5789 75.5726C11.0924 75.8572 11.6251 76.1216 12.1641 76.3582C12.2273 76.3861 12.2789 76.4348 12.3105 76.4962C12.342 76.5576 12.3514 76.628 12.3372 76.6956C12.3229 76.7631 12.2859 76.8237 12.2323 76.8672C12.1787 76.9106 12.1117 76.9344 12.0427 76.9343V76.9343ZM9.40356 75.5239C9.34679 75.5238 9.29123 75.5075 9.2435 75.4767C8.72994 75.1498 8.23169 74.7994 7.75034 74.4267C7.68754 74.3778 7.6466 74.306 7.63646 74.2271C7.62632 74.1482 7.6478 74.0684 7.69621 74.0052C7.72009 73.9739 7.74995 73.9477 7.78404 73.928C7.81814 73.9083 7.85581 73.8956 7.89486 73.8905C7.93391 73.8855 7.97357 73.8882 8.01154 73.8986C8.04952 73.909 8.08506 73.9269 8.11609 73.9511C8.58082 74.3107 9.06797 74.6532 9.56363 74.9695C9.61894 75.0041 9.66148 75.0557 9.68479 75.1166C9.70811 75.1776 9.71093 75.2444 9.69284 75.3071C9.67475 75.3698 9.63672 75.4248 9.58452 75.464C9.53232 75.5031 9.4688 75.5241 9.40356 75.5239V75.5239ZM7.00802 73.7269C6.93537 73.7273 6.86513 73.7009 6.81084 73.6526C6.35297 73.2511 5.91356 72.829 5.49398 72.3876C5.44053 72.3298 5.41194 72.2533 5.41437 72.1746C5.4168 72.0959 5.45007 72.0213 5.50699 71.9669C5.56391 71.9126 5.63993 71.8827 5.71865 71.8839C5.79737 71.885 5.87248 71.9171 5.92778 71.9731C6.33506 72.4013 6.76156 72.8108 7.20597 73.2003C7.25139 73.2408 7.28349 73.2941 7.29804 73.3532C7.31259 73.4123 7.30891 73.4744 7.28749 73.5314C7.26607 73.5884 7.22792 73.6376 7.17803 73.6724C7.12815 73.7073 7.06888 73.7263 7.00802 73.7269V73.7269ZM4.91095 71.5865C4.86721 71.5865 4.82401 71.5769 4.78434 71.5585C4.74468 71.54 4.70951 71.5132 4.68129 71.4798C4.28939 71.0136 3.91888 70.5298 3.5709 70.0299C3.5483 69.9977 3.53228 69.9613 3.52374 69.9229C3.51521 69.8844 3.51433 69.8447 3.52115 69.8059C3.53492 69.7276 3.57924 69.658 3.64435 69.6124C3.70947 69.5667 3.79004 69.5488 3.86835 69.5626C3.94666 69.5764 4.01628 69.6207 4.06191 69.6858C4.39673 70.1668 4.75939 70.6408 5.13906 71.0924C5.17606 71.136 5.19982 71.1893 5.20754 71.2459C5.21527 71.3026 5.20664 71.3603 5.18267 71.4122C5.1587 71.4641 5.12038 71.5081 5.07224 71.539C5.0241 71.5699 4.96814 71.5864 4.91095 71.5865V71.5865ZM3.16184 69.1523C3.1104 69.1524 3.05981 69.1392 3.01496 69.114C2.97012 69.0888 2.93255 69.0524 2.90589 69.0084C2.58878 68.4878 2.29567 67.9529 2.02748 67.4055C1.99264 67.334 1.98748 67.2516 2.01311 67.1763C2.03875 67.1009 2.0931 67.0388 2.16434 67.0034C2.19966 66.986 2.23806 66.9758 2.27735 66.9733C2.31664 66.9708 2.35603 66.9761 2.39326 66.9889C2.43049 67.0017 2.46482 67.0217 2.49428 67.0478C2.52373 67.0739 2.54773 67.1056 2.56489 67.141C2.8247 67.6707 3.11081 68.1934 3.41702 68.6953C3.44491 68.7407 3.46019 68.7928 3.46129 68.846C3.4624 68.8993 3.44928 68.952 3.42329 68.9985C3.3973 69.0451 3.35938 69.0838 3.31342 69.1109C3.26747 69.1379 3.21515 69.1522 3.16184 69.1523V69.1523ZM1.80091 66.4784C1.74173 66.4781 1.68392 66.4605 1.63469 66.4276C1.58547 66.3947 1.547 66.3481 1.52409 66.2935C1.28996 65.7305 1.08199 65.1569 0.900843 64.5746C0.889115 64.5371 0.884891 64.4976 0.888414 64.4585C0.891937 64.4193 0.903137 64.3812 0.921375 64.3464C0.939613 64.3116 0.964532 64.2807 0.994709 64.2555C1.02489 64.2303 1.05973 64.2113 1.09725 64.1996C1.13477 64.1878 1.17424 64.1836 1.21339 64.1871C1.25254 64.1907 1.29062 64.2019 1.32544 64.2201C1.36027 64.2383 1.39116 64.2633 1.41635 64.2934C1.44155 64.3236 1.46055 64.3585 1.47228 64.396C1.64781 64.9597 1.85118 65.5203 2.07697 66.0623C2.09566 66.1079 2.10291 66.1574 2.09807 66.2064C2.09324 66.2554 2.07647 66.3025 2.04924 66.3435C2.02201 66.3846 1.98513 66.4183 1.94184 66.4418C1.89855 66.4653 1.85017 66.4779 1.80091 66.4784V66.4784ZM0.865274 63.6289C0.798305 63.6288 0.7333 63.6063 0.680612 63.5649C0.627924 63.5236 0.590581 63.4658 0.574529 63.4008C0.429275 62.8086 0.311358 62.2099 0.221151 61.6068C0.213869 61.5673 0.214621 61.5266 0.223363 61.4874C0.232105 61.4481 0.248657 61.411 0.272036 61.3782C0.295415 61.3455 0.325141 61.3178 0.359448 61.2967C0.393755 61.2757 0.431941 61.2618 0.471733 61.2558C0.511525 61.2499 0.552111 61.252 0.591076 61.262C0.63004 61.272 0.666587 61.2898 0.698542 61.3143C0.730497 61.3387 0.757207 61.3694 0.777083 61.4043C0.796959 61.4393 0.809595 61.478 0.814239 61.5179C0.901617 62.101 1.01683 62.6863 1.15679 63.2577C1.16757 63.3019 1.16817 63.3479 1.15855 63.3924C1.14894 63.4368 1.12935 63.4785 1.10127 63.5142C1.07319 63.55 1.03736 63.5789 0.996477 63.5987C0.955594 63.6186 0.91073 63.6289 0.865274 63.6289V63.6289ZM0.375802 60.6697C0.30085 60.6696 0.228649 60.6414 0.17341 60.5908C0.11817 60.5401 0.0838938 60.4706 0.0773259 60.3959C0.0255177 59.8106 0 59.2128 0 58.6205C0 58.4543 0.133773 58.2958 0.29925 58.2958C0.464727 58.2958 0.5985 58.4048 0.5985 58.571V58.6205C0.5985 59.1951 0.624018 59.775 0.673506 60.3433C0.677013 60.3826 0.672755 60.4221 0.660973 60.4598C0.649192 60.4974 0.630119 60.5323 0.604844 60.5625C0.579568 60.5927 0.548585 60.6177 0.513664 60.6359C0.478743 60.6542 0.440568 60.6654 0.40132 60.6689L0.375802 60.6697V60.6697ZM0.338686 57.6702L0.319355 57.6694C0.280028 57.667 0.241575 57.6568 0.206201 57.6394C0.170827 57.6221 0.139229 57.5979 0.11322 57.5683C0.0872123 57.5387 0.0673057 57.5042 0.0546439 57.4669C0.041982 57.4296 0.0368136 57.3902 0.0394358 57.3508C0.0780986 56.7423 0.143825 56.1307 0.236616 55.5337C0.25339 55.4595 0.297697 55.3945 0.36058 55.3518C0.423463 55.309 0.500231 55.2917 0.575363 55.3034C0.650496 55.3151 0.718388 55.3549 0.765315 55.4147C0.812242 55.4745 0.834703 55.55 0.828157 55.6257C0.738459 56.2057 0.674279 56.7987 0.637163 57.3887C0.632632 57.4648 0.599219 57.5364 0.543748 57.5887C0.488277 57.641 0.414931 57.6701 0.338686 57.6702V57.6702ZM0.752378 54.7001C0.707595 54.7 0.663407 54.6899 0.623054 54.6704C0.582701 54.651 0.547207 54.6228 0.519177 54.5879C0.491147 54.553 0.471292 54.5122 0.461067 54.4686C0.450842 54.425 0.450507 54.3797 0.460087 54.3359C0.589872 53.74 0.74727 53.1504 0.931773 52.569C0.942562 52.5302 0.961077 52.4939 0.986212 52.4623C1.01135 52.4308 1.04259 52.4046 1.07806 52.3854C1.11354 52.3662 1.15252 52.3544 1.19268 52.3506C1.23284 52.3468 1.27335 52.3511 1.31179 52.3634C1.35023 52.3756 1.38581 52.3954 1.4164 52.4217C1.447 52.448 1.47197 52.4802 1.48984 52.5164C1.50771 52.5525 1.51811 52.5919 1.5204 52.6322C1.5227 52.6725 1.51685 52.7128 1.50321 52.7507C1.32536 53.3121 1.17148 53.8882 1.04544 54.4643C1.03055 54.531 0.993436 54.5906 0.94019 54.6335C0.886945 54.6763 0.820723 54.6998 0.752378 54.7001V54.7001ZM1.61456 51.8275C1.56581 51.8275 1.51779 51.8156 1.47465 51.7929C1.43152 51.7702 1.39457 51.7373 1.367 51.6971C1.33943 51.6569 1.32208 51.6106 1.31644 51.5622C1.3108 51.5137 1.31705 51.4647 1.33464 51.4192C1.5527 50.8532 1.80014 50.2902 2.07001 49.7459C2.08737 49.7105 2.11155 49.679 2.14116 49.6531C2.17076 49.6271 2.20521 49.6073 2.24251 49.5947C2.27981 49.5821 2.31923 49.5771 2.3585 49.5798C2.39777 49.5825 2.43611 49.593 2.47132 49.6106C2.61902 49.6848 2.68011 49.8642 2.60587 50.0134C2.3433 50.5429 2.1054 51.0842 1.89293 51.6357C1.87154 51.6922 1.83343 51.7408 1.7837 51.7751C1.73396 51.8093 1.67495 51.8276 1.61456 51.8275ZM2.90357 49.1226C2.85107 49.1223 2.79957 49.1082 2.75421 49.0817C2.70885 49.0553 2.67119 49.0174 2.645 48.9719C2.61881 48.9264 2.60498 48.8748 2.6049 48.8223C2.60482 48.7698 2.61848 48.7182 2.64453 48.6726C2.94765 48.1452 3.27783 47.6272 3.6258 47.1315C3.6475 47.097 3.676 47.0673 3.70956 47.0442C3.74311 47.0212 3.78101 47.0051 3.82096 46.9972C3.8609 46.9892 3.90205 46.9894 3.9419 46.9979C3.98175 47.0063 4.01946 47.0228 4.05273 47.0463C4.08601 47.0698 4.11415 47.0998 4.13544 47.1346C4.15673 47.1693 4.17073 47.208 4.17658 47.2483C4.18243 47.2886 4.18001 47.3297 4.16947 47.369C4.15893 47.4084 4.14049 47.4452 4.11527 47.4771C3.77518 47.9605 3.45755 48.4593 3.16339 48.9718C3.13728 49.0177 3.09948 49.0558 3.05383 49.0823C3.00819 49.1088 2.95635 49.1227 2.90357 49.1226V49.1226ZM4.59005 46.6451C4.53345 46.6452 4.47798 46.6293 4.43005 46.5992C4.38212 46.569 4.34369 46.526 4.31919 46.475C4.29469 46.4239 4.28512 46.367 4.29159 46.3108C4.29806 46.2546 4.3203 46.2013 4.35575 46.1572C4.73578 45.6812 5.13726 45.2227 5.55894 44.7831C5.58625 44.7547 5.61889 44.732 5.65499 44.7162C5.69109 44.7005 5.72994 44.692 5.76932 44.6912C5.8087 44.6905 5.84785 44.6975 5.88453 44.7118C5.9212 44.7262 5.95468 44.7477 5.98307 44.775C6.01145 44.8023 6.03417 44.835 6.04994 44.8711C6.06571 44.9072 6.07421 44.946 6.07497 44.9854C6.07572 45.0248 6.06871 45.0639 6.05433 45.1006C6.03996 45.1373 6.0185 45.1707 5.99119 45.1991C5.58203 45.6254 5.19267 46.0702 4.82434 46.5322C4.7963 46.5675 4.76067 46.5959 4.7201 46.6155C4.67953 46.635 4.63508 46.6451 4.59005 46.6451V46.6451ZM6.63221 44.4514C6.57178 44.4514 6.51276 44.4331 6.46289 44.3989C6.41302 44.3648 6.37463 44.3164 6.35273 44.2601C6.33083 44.2037 6.32646 44.1421 6.34018 44.0833C6.3539 44.0244 6.38508 43.9711 6.42962 43.9302C6.87696 43.5171 7.34295 43.1247 7.82612 42.7541C7.8574 42.7302 7.89308 42.7127 7.93112 42.7025C7.96917 42.6924 8.00884 42.6899 8.04786 42.6951C8.08689 42.7003 8.12451 42.7131 8.15857 42.7329C8.19263 42.7526 8.22247 42.7789 8.24639 42.8102C8.2703 42.8414 8.28782 42.8771 8.29794 42.9152C8.30807 42.9532 8.3106 42.9929 8.3054 43.0319C8.30019 43.0709 8.28735 43.1085 8.26761 43.1426C8.24786 43.1767 8.2216 43.2065 8.19032 43.2304C7.72179 43.59 7.26975 43.9706 6.83558 44.371C6.78071 44.423 6.70784 44.4518 6.63221 44.4514V44.4514ZM8.98137 42.5933C8.91715 42.5929 8.85475 42.572 8.80327 42.5336C8.7518 42.4952 8.71396 42.4413 8.6953 42.3799C8.67663 42.3185 8.67812 42.2527 8.69954 42.1921C8.72096 42.1316 8.76119 42.0795 8.81434 42.0435C9.31928 41.7032 9.84355 41.3839 10.3732 41.0939C10.4079 41.075 10.4459 41.0631 10.4851 41.0589C10.5243 41.0547 10.564 41.0583 10.6018 41.0694C10.6396 41.0806 10.6749 41.099 10.7056 41.1238C10.7363 41.1486 10.7618 41.1791 10.7807 41.2138C10.7996 41.2484 10.8115 41.2864 10.8157 41.3256C10.8199 41.3648 10.8163 41.4045 10.8052 41.4423C10.7941 41.4802 10.7756 41.5155 10.7508 41.5462C10.7261 41.5769 10.6955 41.6024 10.6609 41.6213C10.143 41.9051 9.6383 42.2124 9.14839 42.5422C9.09895 42.5753 9.04085 42.593 8.98137 42.5933V42.5933ZM11.5865 41.1132C11.518 41.1136 11.4515 41.0905 11.398 41.0478C11.3445 41.0051 11.3071 40.9453 11.2922 40.8785C11.2773 40.8117 11.2858 40.7418 11.3161 40.6804C11.3464 40.619 11.3968 40.5698 11.4589 40.541C12.0079 40.2828 12.5747 40.0477 13.1446 39.8412C13.1818 39.8273 13.2214 39.8208 13.2611 39.8223C13.3008 39.8238 13.3398 39.8331 13.3759 39.8498C13.412 39.8665 13.4444 39.8901 13.4712 39.9194C13.4981 39.9487 13.5188 39.983 13.5323 40.0204C13.5458 40.0578 13.5517 40.0975 13.5497 40.1372C13.5477 40.1769 13.5378 40.2158 13.5207 40.2516C13.5035 40.2875 13.4794 40.3195 13.4498 40.346C13.4201 40.3724 13.3855 40.3927 13.3479 40.4057C12.7958 40.606 12.2461 40.8341 11.7133 41.0846C11.6738 41.1038 11.6304 41.1136 11.5865 41.1132V41.1132ZM14.3841 40.0516C14.3116 40.052 14.2414 40.0261 14.1865 39.9788C14.1316 39.9315 14.0957 39.8658 14.0854 39.7941C14.0751 39.7223 14.0912 39.6493 14.1306 39.5884C14.17 39.5276 14.2301 39.4831 14.2998 39.4631C14.8836 39.2918 15.475 39.1475 16.0721 39.0309C16.1108 39.0232 16.1506 39.0233 16.1892 39.0312C16.2278 39.039 16.2645 39.0544 16.2971 39.0764C16.3297 39.0985 16.3577 39.1268 16.3793 39.1597C16.401 39.1927 16.4159 39.2295 16.4232 39.2683C16.4308 39.3069 16.4308 39.3468 16.423 39.3854C16.4153 39.4241 16.4 39.4609 16.378 39.4936C16.356 39.5264 16.3278 39.5545 16.2949 39.5763C16.2621 39.5981 16.2253 39.6133 16.1866 39.6209C15.6105 39.7338 15.0321 39.8745 14.4684 40.0407C14.4408 40.0478 14.4125 40.0514 14.3841 40.0516V40.0516ZM17.3109 39.4314C17.2351 39.4305 17.1625 39.4011 17.1075 39.349C17.0525 39.2969 17.0192 39.226 17.0142 39.1504C17.0092 39.0748 17.0329 39.0001 17.0806 38.9413C17.1283 38.8824 17.1965 38.8437 17.2714 38.8329C17.8742 38.7532 18.4803 38.7008 19.0878 38.6759C19.1645 38.6775 19.2377 38.7082 19.2924 38.7618C19.3472 38.8155 19.3794 38.8881 19.3825 38.9647C19.3855 39.0413 19.3592 39.1162 19.3089 39.174C19.2586 39.2319 19.1881 39.2684 19.1118 39.276C18.5094 39.3003 17.9085 39.3522 17.3109 39.4314V39.4314ZM28.087 39.2613H26.2899C26.2104 39.2613 26.134 39.2297 26.0778 39.1734C26.0215 39.1172 25.9899 39.0408 25.9899 38.9613C25.9899 38.8817 26.0215 38.8054 26.0778 38.7491C26.134 38.6929 26.2104 38.6613 26.2899 38.6613H28.087C28.1665 38.6613 28.2429 38.6929 28.2991 38.7491C28.3554 38.8054 28.387 38.8817 28.387 38.9613C28.387 39.0408 28.3554 39.1172 28.2991 39.1734C28.2429 39.2297 28.1665 39.2613 28.087 39.2613V39.2613ZM25.0914 39.2613H23.2943C23.2148 39.2613 23.1384 39.2297 23.0822 39.1734C23.0259 39.1172 22.9943 39.0408 22.9943 38.9613C22.9943 38.8817 23.0259 38.8054 23.0822 38.7491C23.1384 38.6929 23.2148 38.6613 23.2943 38.6613H25.0914C25.171 38.6613 25.2473 38.6929 25.3035 38.7491C25.3598 38.8054 25.3914 38.8817 25.3914 38.9613C25.3914 39.0408 25.3598 39.1172 25.3035 39.1734C25.2473 39.2297 25.171 39.2613 25.0914 39.2613ZM22.0958 39.2613H20.2987C20.2192 39.2613 20.1429 39.2297 20.0866 39.1734C20.0303 39.1172 19.9987 39.0408 19.9987 38.9613C19.9987 38.8817 20.0303 38.8054 20.0866 38.7491C20.1429 38.6929 20.2192 38.6613 20.2987 38.6613H22.0958C22.1754 38.6613 22.2517 38.6929 22.3079 38.7491C22.3642 38.8054 22.3958 38.8817 22.3958 38.9613C22.3958 39.0408 22.3642 39.1172 22.3079 39.1734C22.2517 39.2297 22.1754 39.2613 22.0958 39.2613Z" fill="#FE5007"/>
<path d="M12.2755 9.36565C12.2503 9.29097 12.2107 9.22198 12.1589 9.16262C12.1071 9.10326 12.0441 9.05471 11.9735 9.01973C11.9029 8.98475 11.8261 8.96404 11.7475 8.95878C11.6689 8.95352 11.59 8.96381 11.5153 8.98907L9.65257 9.62159V7.62891C9.6567 7.54765 9.64426 7.46641 9.61601 7.39011C9.58775 7.3138 9.54428 7.24404 9.48822 7.18507C9.43217 7.12609 9.36471 7.07914 9.28994 7.04705C9.21517 7.01496 9.13466 6.99841 9.0533 6.99841C8.97193 6.99841 8.89142 7.01496 8.81665 7.04705C8.74188 7.07914 8.67442 7.12609 8.61836 7.18507C8.56231 7.24404 8.51884 7.3138 8.49058 7.39011C8.46233 7.46641 8.44989 7.54765 8.45402 7.62891V9.62159L6.59125 8.98907C6.44282 8.94719 6.28398 8.96392 6.14753 9.03578C6.01108 9.10765 5.90745 9.22918 5.85802 9.37526C5.8086 9.52135 5.81717 9.68084 5.88195 9.82079C5.94674 9.96074 6.0628 10.0705 6.20617 10.1273L8.08363 10.7645L6.92993 12.3342C6.86459 12.4236 6.8252 12.5293 6.81611 12.6397C6.80701 12.7501 6.82855 12.8608 6.87837 12.9597C6.92818 13.0586 7.00434 13.1419 7.09844 13.2003C7.19253 13.2587 7.30093 13.29 7.41167 13.2907C7.50578 13.2909 7.5986 13.2689 7.68258 13.2264C7.76656 13.1839 7.83932 13.1222 7.89496 13.0463L9.05252 11.4712L10.2101 13.0463C10.2566 13.11 10.3152 13.1637 10.3826 13.2046C10.45 13.2455 10.5248 13.2726 10.6027 13.2845C10.6806 13.2963 10.76 13.2927 10.8365 13.2737C10.913 13.2547 10.985 13.2208 11.0483 13.1739C11.1764 13.0793 11.2617 12.9378 11.2855 12.7803C11.3093 12.6228 11.2696 12.4624 11.1751 12.3342L10.0214 10.7645L11.8989 10.1273C12.0498 10.0762 12.1743 9.9673 12.2449 9.82446C12.3155 9.68163 12.3265 9.51659 12.2755 9.36565V9.36565Z" fill="white"/>
<path d="M126.407 81.3404C126.381 81.3404 126.356 81.3388 126.33 81.3357L123.53 80.9754C123.377 80.9491 123.241 80.865 123.149 80.7404C123.057 80.6159 123.016 80.4607 123.036 80.307C123.056 80.1534 123.134 80.0134 123.254 79.916C123.375 79.8187 123.528 79.7716 123.682 79.7846L126.482 80.1449C126.632 80.1664 126.768 80.2434 126.863 80.3606C126.958 80.4777 127.006 80.6265 126.996 80.7773C126.987 80.928 126.921 81.0697 126.812 81.174C126.703 81.2784 126.558 81.3378 126.407 81.3404V81.3404Z" fill="#FE5007"/>
<path d="M125.177 83.865C125.075 83.8646 124.975 83.8384 124.886 83.7888C124.798 83.7392 124.723 83.6678 124.669 83.5814C124.615 83.495 124.585 83.3964 124.579 83.2948C124.574 83.1932 124.595 83.0919 124.64 83.0005L125.868 80.4758C125.902 80.4048 125.95 80.3412 126.009 80.2888C126.068 80.2363 126.137 80.1961 126.211 80.1704C126.286 80.1447 126.365 80.1341 126.443 80.1392C126.522 80.1442 126.599 80.1648 126.669 80.1998C126.812 80.2699 126.922 80.3939 126.973 80.5445C127.025 80.6952 127.015 80.8602 126.945 81.0032L125.716 83.5279C125.667 83.629 125.59 83.7143 125.495 83.7739C125.4 83.8336 125.289 83.8651 125.177 83.865V83.865Z" fill="#FE5007"/>
<path d="M126.406 81.3403C126.267 81.3399 126.133 81.2917 126.026 81.2038C125.919 81.1158 125.846 80.9936 125.819 80.8578L125.266 78.1035C125.235 77.9474 125.266 77.7854 125.354 77.6528C125.442 77.5202 125.579 77.4278 125.735 77.3959C125.891 77.3649 126.053 77.397 126.185 77.4851C126.318 77.5733 126.41 77.7102 126.441 77.8661L126.994 80.6204C127.012 80.7076 127.01 80.7976 126.988 80.8838C126.967 80.9701 126.926 81.0506 126.87 81.1194C126.814 81.1883 126.743 81.2438 126.663 81.282C126.582 81.3202 126.495 81.3401 126.406 81.3403V81.3403Z" fill="#FE5007"/>
<path d="M126.407 81.3404C126.274 81.3413 126.144 81.2976 126.038 81.2163C125.932 81.1349 125.857 81.0206 125.823 80.8914C125.79 80.7622 125.8 80.6255 125.853 80.5031C125.906 80.3806 125.999 80.2793 126.116 80.2153L128.532 78.8683C128.671 78.7984 128.831 78.7849 128.979 78.8306C129.128 78.8763 129.253 78.9776 129.328 79.1134C129.403 79.2492 129.423 79.4088 129.383 79.5589C129.343 79.7089 129.247 79.8378 129.114 79.9183L126.698 81.2654C126.609 81.3145 126.509 81.3403 126.407 81.3404V81.3404Z" fill="#FE5007"/>
<path d="M128.405 83.2556C128.25 83.2561 128.102 83.1964 127.991 83.0894L125.993 81.174C125.878 81.0638 125.812 80.9126 125.808 80.7535C125.804 80.5944 125.864 80.4404 125.973 80.325C126.028 80.268 126.093 80.2222 126.165 80.1904C126.237 80.1586 126.314 80.1412 126.393 80.1394C126.472 80.1376 126.55 80.1514 126.624 80.1799C126.697 80.2085 126.764 80.2512 126.821 80.3057L128.819 82.221C128.905 82.3042 128.964 82.4111 128.989 82.5279C129.014 82.6448 129.003 82.7664 128.959 82.8773C128.914 82.9882 128.838 83.0834 128.739 83.1508C128.641 83.2181 128.524 83.2546 128.405 83.2556V83.2556Z" fill="#FE5007"/>
<path d="M115.88 92.4126C115.936 92.6884 115.88 92.9751 115.725 93.2097C115.569 93.4443 115.327 93.6076 115.051 93.6637C114.775 93.7188 114.489 93.662 114.254 93.5059C114.02 93.3497 113.858 93.1069 113.802 92.8309C113.747 92.5551 113.803 92.2685 113.958 92.0341C114.114 91.7996 114.356 91.6365 114.632 91.5806C114.908 91.5255 115.195 91.5823 115.429 91.7385C115.663 91.8946 115.826 92.1374 115.881 92.4134L115.88 92.4126Z" fill="white"/>
<path d="M103.081 49.3686H32.6747V6.31213H103.081V49.3686ZM33.8725 48.1669H101.883V7.513H33.8725V48.1669Z" fill="#FE5007"/>
<path d="M74.9571 23.7513L56.0649 39.6943C55.8826 39.8486 55.7687 40.0687 55.7483 40.3067C55.7278 40.5446 55.8025 40.781 55.9559 40.964C56.0316 41.0548 56.1245 41.1297 56.2293 41.1844C56.3341 41.2391 56.4487 41.2725 56.5664 41.2826C56.6842 41.2928 56.8028 41.2795 56.9154 41.2435C57.028 41.2075 57.1324 41.1496 57.2225 41.073L76.1147 25.1301C76.297 24.9758 76.4109 24.7557 76.4313 24.5177C76.4517 24.2798 76.3771 24.0434 76.2237 23.8604C76.1478 23.7698 76.0548 23.6952 75.95 23.6406C75.8453 23.5861 75.7307 23.5529 75.613 23.5427C75.4954 23.5326 75.3768 23.5458 75.2643 23.5816C75.1517 23.6174 75.0473 23.6751 74.9571 23.7513Z" fill="white"/>
<path d="M60.9998 31.2759C60.924 31.1855 60.831 31.1109 60.7263 31.0564C60.6216 31.002 60.5071 30.9688 60.3895 30.9586C60.272 30.9485 60.1535 30.9617 60.041 30.9974C59.9285 31.0331 59.8242 31.0907 59.734 31.1669L47.5653 41.4365C47.3829 41.5907 47.2691 41.8109 47.2486 42.0488C47.2282 42.2868 47.3029 42.5231 47.4562 42.7062C47.5319 42.797 47.6248 42.8719 47.7296 42.9266C47.8344 42.9813 47.949 43.0146 48.0668 43.0248C48.1846 43.0349 48.3032 43.0216 48.4158 42.9856C48.5284 42.9497 48.6328 42.8917 48.7228 42.8152L60.8916 32.5456C61.074 32.3914 61.1878 32.1711 61.2081 31.9331C61.2284 31.6951 61.1535 31.4588 60.9998 31.2759Z" fill="white"/>
<path d="M116.744 61.8867V61.6269H116.485L108.567 53.6926V3.71858C108.567 2.92263 108.251 2.15911 107.689 1.59549C107.127 1.03188 106.365 0.714206 105.569 0.712158H30.1871C29.3912 0.714206 28.6286 1.03188 28.0666 1.59549C27.5045 2.15911 27.189 2.92263 27.1892 3.71858V53.6933L18.9595 61.9401H19.5355V66.6987C19.5353 67.5846 19.8866 68.4344 20.5123 69.0616C21.138 69.6887 21.987 70.042 22.8729 70.0438H113.408C114.294 70.0416 115.142 69.6881 115.768 69.0611C116.393 68.434 116.745 67.5844 116.745 66.6987V61.9401H116.797L116.744 61.8867V61.8867ZM28.9863 3.71858C28.9863 3.05512 29.5245 2.51462 30.1871 2.51462H105.569C106.231 2.51462 106.77 3.05512 106.77 3.71858V53.166H28.9863V3.71858ZM28.4597 54.9677H107.296L112.455 60.1376H76.557L76.1301 63.3142H59.6258L59.1989 60.1376H23.2998L28.4597 54.9677ZM114.946 66.6987C114.946 67.5493 114.256 68.2421 113.406 68.2421H22.8714C22.4627 68.2411 22.0711 68.0781 21.7825 67.7887C21.4939 67.4994 21.3318 67.1074 21.3318 66.6987V61.9401H57.6269L57.8558 63.6413C57.911 64.0488 58.1118 64.4227 58.421 64.6938C58.7302 64.965 59.1271 65.1151 59.5384 65.1166H76.2175C77.0635 65.1166 77.7865 64.4826 77.9001 63.6413L78.129 61.9393H114.947V66.6987H114.946Z" fill="white"/>
<path d="M65.3192 111.288L71.5548 100.458H59.0837L65.3192 111.288V111.288Z" fill="#FE5007"/>
</svg>
