<svg width="133" height="148" viewBox="0 0 133 148" fill="none" xmlns="http://www.w3.org/2000/svg">
<path d="M86.3039 119.124H75.3892C75.3892 121.575 76.4495 123.714 78.0309 124.895V132.637H83.6601V124.895C85.2425 123.714 86.3039 121.574 86.3039 119.124Z" fill="#D9332E"/>
<path d="M9.17433 95.422L6.48942 94.7605L7.99617 92.4225C8.0559 92.33 8.0967 92.2265 8.11621 92.1181C8.13572 92.0098 8.13354 91.8986 8.10982 91.791C8.0861 91.6835 8.04131 91.5817 7.97801 91.4916C7.91472 91.4015 7.83419 91.3248 7.74108 91.266C7.55313 91.146 7.32532 91.1052 7.10741 91.1526C6.8895 91.2 6.6992 91.3317 6.57805 91.5189L5.07022 93.8568L3.34189 91.7113C3.20159 91.5377 2.99837 91.4265 2.77649 91.402C2.55461 91.3775 2.33204 91.4417 2.15724 91.5805C2.07095 91.6489 1.99905 91.7337 1.94567 91.83C1.8923 91.9263 1.85851 92.0322 1.84625 92.1416C1.83399 92.251 1.84351 92.3618 1.87425 92.4675C1.905 92.5732 1.95636 92.6718 2.02538 92.7576L3.76668 94.9193L1.21363 95.8921C1.11053 95.9309 1.01612 95.9896 0.935867 96.0651C0.855615 96.1405 0.791111 96.2311 0.746083 96.3316C0.701054 96.4321 0.676394 96.5405 0.67353 96.6506C0.670666 96.7607 0.689657 96.8703 0.7294 96.973C0.810099 97.1811 0.969979 97.3486 1.174 97.439C1.37803 97.5293 1.60956 97.5351 1.81785 97.4551L4.38062 96.4791L4.56113 99.1996C4.59031 99.6428 4.96105 99.9822 5.40097 99.9822C5.42043 99.9822 5.43772 99.9822 5.45718 99.98C5.56726 99.9732 5.6749 99.9447 5.77396 99.8962C5.87303 99.8477 5.96158 99.7802 6.03454 99.6975C6.10751 99.6148 6.16348 99.5185 6.19924 99.4142C6.235 99.3098 6.24987 99.1995 6.24298 99.0894L6.06355 96.3785L8.76792 97.0454C8.98433 97.0995 9.21334 97.0655 9.40479 96.9511C9.59623 96.8366 9.73452 96.6509 9.78936 96.4347C9.81564 96.3278 9.82058 96.2168 9.80388 96.108C9.78718 95.9992 9.74918 95.8948 9.69204 95.8007C9.63491 95.7066 9.55977 95.6247 9.47093 95.5597C9.38209 95.4947 9.2813 95.4479 9.17433 95.422Z" fill="#D9332E"/>
<path d="M111.674 1.98081C111.674 2.79904 111.007 3.46162 110.184 3.46162C109.79 3.46277 109.412 3.30743 109.132 3.02976C108.853 2.75208 108.695 2.37479 108.693 1.98081C108.693 1.16258 109.36 0.5 110.184 0.5C111.007 0.5 111.674 1.16258 111.674 1.98081Z" fill="#D9332E"/>
<path d="M3.00681 115.864C3.00681 116.682 2.33991 117.344 1.51628 117.344C1.1223 117.346 0.743978 117.19 0.464479 116.913C0.18498 116.635 0.0271726 116.258 0.0257416 115.864C0.0257416 115.045 0.692648 114.383 1.51628 114.383C2.33991 114.383 3.00681 115.045 3.00681 115.864Z" fill="#293150"/>
<path d="M80.8465 131.381C68.6066 131.381 58.6485 138.049 58.6485 146.244V147.5H103.045V146.244C103.045 138.049 93.0865 131.381 80.8465 131.381ZM61.2772 144.989C62.2813 138.765 70.6754 133.893 80.8465 133.893C87.3308 133.893 93.0832 135.878 96.6685 138.926H91.0468C90.1886 138.926 89.4936 139.617 89.4936 140.47C89.4936 141.323 90.1886 142.013 91.0468 142.013H99.2745L99.3069 142.01C99.8593 142.956 100.248 143.952 100.416 144.988H61.2772V144.989Z" fill="#293150"/>
<path d="M86.0705 138.927H84.0276C83.1694 138.927 82.4744 139.617 82.4744 140.47C82.4744 141.323 83.1694 142.014 84.0276 142.014H86.0705C86.9287 142.014 87.6237 141.323 87.6237 140.47C87.6237 139.617 86.9287 138.927 86.0705 138.927Z" fill="#293150"/>
<path d="M119.767 55.2219L119.813 55.7256C119.843 56.0628 119.87 56.4001 119.891 56.7373C119.915 57.0705 120.069 57.3808 120.321 57.6001C120.573 57.8194 120.902 57.9297 121.235 57.9068C121.4 57.8966 121.561 57.854 121.71 57.7813C121.859 57.7086 121.992 57.6073 122.101 57.4832C122.21 57.3591 122.294 57.2147 122.348 57.0581C122.401 56.9015 122.424 56.736 122.413 56.5708C122.389 56.2146 122.361 55.8586 122.33 55.5029L122.28 54.9722C122.263 54.8075 122.214 54.6477 122.136 54.502C122.057 54.3562 121.951 54.2274 121.822 54.1229C121.694 54.0184 121.546 53.9403 121.387 53.8929C121.229 53.8456 121.062 53.83 120.898 53.847C120.733 53.863 120.573 53.9112 120.427 53.989C120.281 54.0667 120.152 54.1725 120.047 54.3002C119.942 54.4279 119.864 54.575 119.815 54.7331C119.767 54.8913 119.751 55.0574 119.767 55.2219Z" fill="#293150"/>
<path d="M115.02 39.0399C117.017 42.9559 118.436 47.1406 119.233 51.4636C119.295 51.7923 119.484 52.0831 119.76 52.2724C120.036 52.4616 120.375 52.5338 120.704 52.4731C120.867 52.4442 121.022 52.3834 121.162 52.2942C121.301 52.2051 121.421 52.0892 121.515 51.9534C121.61 51.8176 121.676 51.6645 121.711 51.5029C121.746 51.3413 121.749 51.1744 121.719 51.0118C120.879 46.4509 119.381 42.036 117.273 37.905C117.12 37.6076 116.856 37.3827 116.538 37.2792C116.22 37.1758 115.874 37.2022 115.575 37.3527C115.428 37.4264 115.296 37.5287 115.188 37.6537C115.08 37.7786 114.998 37.9237 114.946 38.0805C114.894 38.2374 114.874 38.403 114.887 38.5676C114.9 38.7323 114.945 38.8928 115.02 39.0399Z" fill="#293150"/>
<path d="M132.301 86.2615C132.005 86.1055 131.659 86.0729 131.339 86.1709C131.019 86.2689 130.751 86.4896 130.593 86.7847C127.973 91.6971 124.662 96.2087 120.762 100.182L114.525 93.9855C133.381 74.615 133.195 43.6251 113.944 24.4988C104.521 15.1373 91.9937 9.98152 78.6686 9.98152C65.6256 9.98152 53.3543 14.932 44.0036 23.9206L37.7669 17.7239C41.7745 13.8442 46.3149 10.5558 51.2509 7.95811C51.8681 7.63384 52.1037 6.87506 51.7773 6.26112C51.6195 5.96603 51.3513 5.74537 51.0313 5.64735C50.7113 5.54934 50.3656 5.58191 50.0695 5.73797C44.9108 8.45337 40.1664 11.8918 35.9802 15.9491L28.3751 8.39262C28.2168 8.23539 28.0027 8.14716 27.7796 8.14716C27.5564 8.14716 27.3423 8.23539 27.184 8.39262C27.1059 8.47009 27.0438 8.56228 27.0015 8.66385C26.9592 8.76542 26.9374 8.87437 26.9374 8.9844C26.9374 9.09444 26.9592 9.20339 27.0015 9.30496C27.0438 9.40653 27.1059 9.49871 27.184 9.57619L34.7934 17.1359C11.5155 40.9012 11.7004 79.0402 35.3738 102.56C47.3122 114.421 62.9882 120.349 78.6707 120.349C94.0863 120.349 109.499 114.601 121.357 103.136L128.967 110.697C129.125 110.855 129.34 110.943 129.563 110.943C129.786 110.943 130.001 110.855 130.159 110.697C130.237 110.62 130.299 110.527 130.341 110.426C130.384 110.324 130.406 110.215 130.406 110.105C130.406 109.995 130.384 109.886 130.341 109.785C130.299 109.683 130.237 109.591 130.159 109.513L122.552 101.957C126.631 97.8062 130.092 93.0912 132.831 87.9564C132.907 87.8104 132.954 87.6506 132.969 87.4864C132.984 87.3221 132.967 87.1565 132.917 86.999C132.868 86.8416 132.788 86.6954 132.683 86.5689C132.577 86.4423 132.447 86.3379 132.301 86.2615ZM115.223 89.4556C115.797 86.4756 116.303 82.0937 115.896 76.7606C115.208 67.7179 111.621 54.2231 98.5666 40.9607L112.739 26.8811C129.544 44.1763 130.376 71.2027 115.223 89.4556ZM41.7229 42.0491C42.4115 51.0918 45.9978 64.5866 59.0527 77.849L44.597 92.2107C27.6855 74.8064 26.9559 47.5508 42.4082 29.2936C41.8289 32.2747 41.3133 36.6804 41.7229 42.0491ZM60.2449 79.0326C74.8606 93.2332 89.8903 96.3343 100.213 96.3343C103.868 96.3343 106.923 95.9463 109.17 95.5258C90.7939 110.923 63.3244 110.213 45.7892 93.3943L60.2449 79.0326ZM61.4404 77.8447L78.6675 60.7289L111.458 93.3078C105.879 94.7973 83.2634 99.0365 61.4404 77.8447ZM79.8597 59.5454L97.37 42.1486C118.98 64.1164 114.296 86.949 112.869 92.0724L112.737 92.2096L79.8597 59.5454ZM78.6675 12.4935C91.036 12.4935 102.673 17.1834 111.546 25.6975L97.3711 39.7804C77.6299 20.6001 57.1309 21.6713 48.5033 23.271C56.9742 16.2939 67.5258 12.4935 78.6675 12.4935ZM45.9297 25.5646C51.0834 24.14 74.0381 19.4641 96.1789 40.965L78.6686 58.3618L45.7892 25.6965L45.9297 25.5646ZM44.6867 26.9687L77.4764 59.5454L60.2493 76.6611C38.9516 55.0111 43.194 32.5201 44.6867 26.9687ZM37.1584 100.786C14.4707 78.2457 14.2858 41.6989 36.5779 18.9128L42.8114 25.1063C23.9554 44.4768 24.1402 75.4668 43.3918 94.5941C53.1176 104.257 65.8926 109.088 78.6675 109.088C91.1798 109.088 103.686 104.44 113.332 95.1702L119.566 101.364C96.6318 123.51 59.8472 123.327 37.1584 100.786Z" fill="#293150"/>
<path d="M26.877 115.552H26.8673L26.7538 115.551C26.6425 115.55 26.5361 115.505 26.4581 115.426C26.3801 115.346 26.3368 115.239 26.3377 115.128C26.3396 115.017 26.3849 114.912 26.4638 114.834C26.5426 114.757 26.6487 114.714 26.7592 114.714H26.7646L26.8694 114.715H26.8781C27.5536 114.715 28.3254 114.622 29.1739 114.438C29.2288 114.423 29.2861 114.419 29.3424 114.427C29.3988 114.435 29.4529 114.454 29.5016 114.484C29.5502 114.513 29.5924 114.552 29.6255 114.598C29.6586 114.645 29.682 114.697 29.6942 114.753C29.7064 114.808 29.7071 114.866 29.6964 114.922C29.6857 114.977 29.6637 115.031 29.6318 115.078C29.5999 115.125 29.5588 115.165 29.5109 115.196C29.463 115.226 29.4094 115.247 29.3533 115.256C28.4443 115.453 27.6109 115.552 26.877 115.552ZM25.099 115.299C25.0538 115.3 25.0088 115.292 24.966 115.278C24.4047 115.101 23.893 114.795 23.4722 114.384C23.2164 114.127 23.0007 113.834 22.8324 113.513C22.8067 113.464 22.7909 113.411 22.786 113.356C22.7811 113.301 22.7871 113.246 22.8037 113.193C22.8203 113.14 22.8471 113.092 22.8826 113.05C22.9182 113.007 22.9617 112.973 23.0107 112.948C23.1095 112.896 23.2248 112.886 23.3312 112.919C23.4377 112.952 23.5269 113.025 23.5792 113.124C23.7122 113.376 23.8765 113.6 24.0678 113.792C24.3759 114.098 24.7671 114.33 25.2308 114.482C25.2909 114.483 25.3501 114.497 25.4043 114.523C25.4586 114.549 25.5067 114.586 25.5453 114.632C25.5839 114.678 25.6122 114.731 25.6282 114.789C25.6441 114.847 25.6474 114.908 25.6379 114.967C25.6283 115.027 25.6061 115.083 25.5727 115.133C25.5393 115.183 25.4956 115.225 25.4444 115.257C25.3933 115.288 25.336 115.308 25.2764 115.316C25.2168 115.323 25.1562 115.318 25.099 115.299ZM30.8871 114.836C30.7857 114.838 30.6869 114.803 30.6092 114.738C30.5316 114.673 30.4803 114.582 30.4651 114.481C30.4499 114.381 30.4717 114.279 30.5265 114.193C30.5813 114.108 30.6653 114.045 30.7628 114.018C31.5556 113.771 32.3377 113.492 33.1072 113.18C33.2105 113.138 33.326 113.139 33.4287 113.182C33.5314 113.225 33.6128 113.307 33.6552 113.41C33.676 113.461 33.6864 113.516 33.6859 113.571C33.6854 113.626 33.6741 113.68 33.6525 113.731C33.6309 113.782 33.5994 113.827 33.56 113.866C33.5206 113.904 33.474 113.935 33.4228 113.955C32.5754 114.296 31.7637 114.586 31.0114 114.817C30.9711 114.83 30.9292 114.836 30.8871 114.836ZM34.8139 113.324C34.733 113.324 34.6537 113.301 34.5857 113.257C34.5176 113.213 34.4636 113.151 34.4302 113.077C34.4073 113.027 34.3946 112.973 34.3928 112.918C34.3909 112.863 34.4 112.808 34.4195 112.757C34.439 112.705 34.4686 112.658 34.5064 112.618C34.5442 112.578 34.5896 112.546 34.6399 112.524C35.4015 112.18 36.1547 111.818 36.899 111.439C36.9983 111.388 37.1137 111.379 37.2199 111.413C37.326 111.447 37.4143 111.522 37.4653 111.621C37.4905 111.67 37.5057 111.724 37.51 111.779C37.5144 111.834 37.5078 111.889 37.4907 111.941C37.4737 111.993 37.4464 112.042 37.4105 112.084C37.3746 112.125 37.3308 112.16 37.2816 112.184C36.4893 112.586 35.7176 112.957 34.9869 113.286C34.9327 113.311 34.8736 113.324 34.8139 113.324ZM22.7524 112.135C22.6485 112.135 22.5483 112.096 22.471 112.027C22.3938 111.957 22.345 111.862 22.3341 111.759C22.3091 111.51 22.2965 111.26 22.2962 111.011C22.2962 110.44 22.3568 109.812 22.4746 109.145C22.4993 109.04 22.5631 108.949 22.6528 108.89C22.7426 108.831 22.8515 108.808 22.9573 108.827C23.0632 108.845 23.158 108.904 23.2223 108.99C23.2867 109.076 23.3158 109.183 23.3036 109.29C23.1991 109.857 23.1438 110.432 23.1382 111.008C23.1393 111.239 23.1501 111.46 23.1707 111.673C23.1767 111.732 23.1704 111.791 23.1521 111.847C23.1339 111.902 23.104 111.954 23.0646 111.997C23.0251 112.041 22.9769 112.076 22.9231 112.099C22.8693 112.123 22.8111 112.135 22.7524 112.135ZM38.5808 111.449C38.5051 111.45 38.4308 111.429 38.3656 111.391C38.3004 111.353 38.2467 111.297 38.2101 111.231C38.1836 111.183 38.167 111.13 38.1612 111.075C38.1554 111.02 38.1605 110.965 38.1763 110.912C38.1921 110.859 38.2182 110.81 38.2531 110.767C38.2881 110.725 38.3311 110.689 38.3798 110.664C39.1164 110.266 39.8468 109.856 40.5707 109.436C40.6671 109.379 40.7818 109.364 40.8898 109.392C40.9978 109.42 41.0902 109.49 41.1468 109.586C41.1749 109.633 41.1932 109.686 41.2007 109.74C41.2083 109.795 41.205 109.85 41.1909 109.904C41.1768 109.957 41.1523 110.007 41.1187 110.05C41.0852 110.094 41.0433 110.13 40.9955 110.158C40.2389 110.597 39.5006 111.011 38.7819 111.399C38.7201 111.432 38.651 111.449 38.5808 111.449ZM42.2309 109.358C42.1588 109.358 42.0877 109.34 42.0247 109.304C41.9617 109.269 41.9088 109.218 41.871 109.157C41.8422 109.11 41.8229 109.058 41.8143 109.003C41.8058 108.949 41.8081 108.893 41.8212 108.84C41.8343 108.786 41.8578 108.736 41.8905 108.692C41.9232 108.648 41.9643 108.61 42.0115 108.582C42.7098 108.16 43.4232 107.718 44.1495 107.258C44.2436 107.198 44.3576 107.177 44.4666 107.201C44.5756 107.225 44.6707 107.291 44.731 107.385C44.7608 107.432 44.7812 107.483 44.7909 107.537C44.8006 107.592 44.7995 107.647 44.7876 107.701C44.7758 107.755 44.7534 107.806 44.7218 107.851C44.6902 107.896 44.65 107.934 44.6035 107.964C43.8717 108.428 43.1529 108.873 42.4493 109.297C42.3834 109.337 42.3079 109.358 42.2309 109.358ZM23.2679 108.006C23.2031 108.006 23.1391 107.992 23.0809 107.963C23.0226 107.935 22.9719 107.893 22.9325 107.842C22.8932 107.79 22.8664 107.73 22.8543 107.667C22.8421 107.603 22.845 107.537 22.8626 107.475C23.0745 106.724 23.349 105.91 23.6798 105.058C23.7221 104.957 23.8021 104.876 23.9028 104.833C24.0036 104.79 24.1171 104.788 24.2194 104.827C24.3217 104.867 24.4047 104.944 24.4509 105.043C24.497 105.143 24.5027 105.256 24.4666 105.36C24.165 106.127 23.9006 106.908 23.6744 107.701C23.6487 107.789 23.5952 107.866 23.5219 107.921C23.4486 107.976 23.3595 108.006 23.2679 108.006ZM45.7925 107.118C45.7015 107.12 45.6125 107.093 45.5388 107.039C45.4652 106.986 45.4111 106.91 45.3847 106.823C45.3584 106.736 45.3612 106.643 45.3929 106.557C45.4246 106.472 45.4833 106.4 45.5601 106.351C46.2475 105.901 46.9447 105.436 47.6537 104.955C47.7461 104.893 47.8594 104.869 47.9691 104.89C48.0788 104.91 48.176 104.973 48.2396 105.065C48.2705 105.11 48.2923 105.161 48.3035 105.215C48.3147 105.269 48.3152 105.324 48.305 105.378C48.2947 105.432 48.2739 105.484 48.2438 105.53C48.2137 105.576 48.1748 105.615 48.1293 105.646C47.4181 106.13 46.7144 106.598 46.0248 107.05C45.9553 107.094 45.8748 107.118 45.7925 107.118ZM49.2772 104.765C49.1877 104.766 49.1002 104.739 49.0276 104.686C48.955 104.634 48.9011 104.56 48.874 104.475C48.8468 104.389 48.8478 104.297 48.8768 104.213C48.9059 104.128 48.9613 104.055 49.0351 104.004C49.7117 103.534 50.397 103.05 51.0909 102.553C51.1814 102.487 51.2941 102.46 51.4044 102.478C51.5146 102.496 51.6134 102.556 51.6789 102.647C51.7113 102.691 51.7345 102.742 51.7472 102.795C51.7599 102.849 51.7619 102.904 51.7531 102.958C51.7443 103.013 51.7247 103.065 51.6957 103.111C51.6666 103.158 51.6286 103.198 51.5838 103.23C50.8866 103.73 50.1981 104.217 49.5183 104.69C49.4475 104.739 49.3634 104.765 49.2772 104.765ZM24.7152 104.079C24.6454 104.079 24.5766 104.062 24.515 104.029C24.4534 103.997 24.401 103.949 24.3627 103.89C24.3243 103.832 24.3011 103.765 24.2953 103.695C24.2895 103.626 24.3012 103.556 24.3294 103.492C24.6547 102.75 25.0201 101.98 25.4135 101.199C25.4646 101.101 25.5524 101.026 25.658 100.991C25.7637 100.956 25.8788 100.964 25.9788 101.012C26.1874 101.116 26.2706 101.368 26.1669 101.574C25.7799 102.342 25.4211 103.101 25.1011 103.828C25.068 103.903 25.0139 103.966 24.9454 104.011C24.8769 104.055 24.7969 104.079 24.7152 104.079ZM52.7004 102.322C52.6117 102.323 52.5251 102.296 52.4531 102.244C52.381 102.193 52.3272 102.119 52.2994 102.035C52.2717 101.951 52.2713 101.86 52.2985 101.776C52.3257 101.691 52.379 101.618 52.4507 101.566C53.1176 101.078 53.7921 100.578 54.4719 100.068C54.5611 100 54.6734 99.9712 54.784 99.9866C54.8947 100.002 54.9947 100.061 55.0621 100.15C55.0955 100.194 55.1199 100.243 55.1339 100.297C55.148 100.35 55.1513 100.405 55.1437 100.46C55.1362 100.514 55.118 100.567 55.09 100.614C55.0621 100.661 55.0251 100.703 54.981 100.736C54.2968 101.249 53.6202 101.751 52.9501 102.24C52.8777 102.294 52.7902 102.322 52.7004 102.322ZM26.5614 100.317C26.4889 100.318 26.4176 100.299 26.3544 100.264C26.2912 100.229 26.2382 100.178 26.2008 100.116C26.1633 100.054 26.1425 99.9828 26.1406 99.9104C26.1386 99.838 26.1555 99.7663 26.1896 99.7024C26.5733 98.9857 26.984 98.2497 27.4218 97.4941C27.4778 97.3977 27.5697 97.3273 27.6775 97.2984C27.7852 97.2694 27.9 97.2842 27.9968 97.3396C28.0447 97.3667 28.0868 97.4031 28.1206 97.4466C28.1545 97.4901 28.1793 97.5399 28.1938 97.593C28.2083 97.6462 28.212 97.7017 28.205 97.7563C28.1979 97.811 28.18 97.8636 28.1525 97.9113C27.7201 98.6593 27.3137 99.3867 26.9343 100.097C26.8976 100.164 26.8437 100.219 26.7781 100.258C26.7125 100.297 26.6376 100.317 26.5614 100.317ZM56.0673 99.8051C55.9791 99.8068 55.8927 99.7804 55.8205 99.7298C55.7483 99.6792 55.694 99.6069 55.6655 99.5235C55.637 99.44 55.6357 99.3497 55.6619 99.2654C55.6881 99.1812 55.7404 99.1075 55.8112 99.0549C56.4705 98.5523 57.1342 98.0389 57.8043 97.5168C57.8921 97.4479 58.0036 97.4165 58.1144 97.4297C58.2253 97.4429 58.3264 97.4995 58.3955 97.5871C58.4297 97.6303 58.4549 97.6798 58.4698 97.7328C58.4847 97.7858 58.4889 97.8413 58.4823 97.8959C58.4757 97.9506 58.4583 98.0034 58.4312 98.0513C58.404 98.0992 58.3677 98.1413 58.3242 98.1751C57.6519 98.7004 56.985 99.2149 56.3235 99.7197C56.2497 99.7752 56.1597 99.8052 56.0673 99.8051ZM59.3867 97.225C59.2998 97.2253 59.215 97.1985 59.144 97.1483C59.073 97.0982 59.0194 97.0271 58.9906 96.9451C58.9619 96.8631 58.9594 96.7742 58.9835 96.6907C59.0076 96.6072 59.0571 96.5332 59.1251 96.4792C59.7758 95.9647 60.4308 95.4394 61.0913 94.9065C61.1779 94.8361 61.2889 94.803 61.3999 94.8143C61.511 94.8256 61.613 94.8806 61.6836 94.967C61.7185 95.0096 61.7446 95.0586 61.7605 95.1114C61.7763 95.1641 61.7816 95.2194 61.776 95.2742C61.7703 95.3289 61.7539 95.382 61.7277 95.4304C61.7014 95.4788 61.6659 95.5215 61.6231 95.5561C60.9616 96.0911 60.3033 96.6186 59.6504 97.1353C59.5748 97.1935 59.4821 97.225 59.3867 97.225ZM28.6399 96.677C28.5661 96.6764 28.4938 96.6564 28.4301 96.6191C28.3664 96.5817 28.3137 96.5283 28.2771 96.4642C28.2406 96.4001 28.2215 96.3275 28.2218 96.2536C28.2221 96.1798 28.2418 96.1074 28.2789 96.0436C28.7015 95.3421 29.1458 94.6265 29.6095 93.8969C29.6698 93.8032 29.7647 93.7369 29.8734 93.7124C29.9822 93.688 30.0963 93.7073 30.191 93.7662C30.2376 93.7954 30.278 93.8335 30.3098 93.8783C30.3416 93.9232 30.3643 93.9739 30.3764 94.0275C30.3886 94.0812 30.39 94.1367 30.3806 94.1909C30.3713 94.2451 30.3513 94.2969 30.3218 94.3434C29.8613 95.0675 29.4203 95.7777 29.0009 96.4738C28.9634 96.5359 28.9104 96.5872 28.8471 96.6228C28.7839 96.6584 28.7125 96.6771 28.6399 96.677ZM62.6575 94.5876C62.5704 94.5894 62.485 94.5639 62.4133 94.5147C62.3415 94.4654 62.287 94.3949 62.2574 94.3131C62.2278 94.2312 62.2246 94.1421 62.2483 94.0584C62.272 93.9746 62.3213 93.9004 62.3894 93.8461C63.0392 93.3144 63.6863 92.7794 64.3307 92.241C64.4165 92.17 64.5268 92.1355 64.6378 92.145C64.7488 92.1545 64.8516 92.2072 64.9241 92.2918C64.9598 92.3338 64.9868 92.3825 65.0035 92.435C65.0202 92.4875 65.0263 92.5429 65.0215 92.5978C65.0167 92.6527 65.001 92.7061 64.9754 92.7549C64.9497 92.8037 64.9147 92.8469 64.8722 92.882C64.2193 93.4268 63.5708 93.964 62.9266 94.4925C62.8504 94.554 62.7554 94.5876 62.6575 94.5876ZM30.8752 93.1295C30.7999 93.1292 30.726 93.1087 30.6613 93.0701C30.5966 93.0315 30.5435 92.9762 30.5074 92.9101C30.4714 92.8439 30.4539 92.7692 30.4566 92.694C30.4593 92.6187 30.4822 92.5455 30.5228 92.4821C30.9746 91.7935 31.4416 91.0942 31.9269 90.3841C31.9902 90.2924 32.087 90.2293 32.1964 90.2084C32.3059 90.1876 32.4191 90.2107 32.5117 90.2728C32.7041 90.4025 32.7548 90.6629 32.6241 90.8543C32.1431 91.5601 31.6772 92.2551 31.2286 92.9393C31.1901 92.9978 31.1376 93.0458 31.0759 93.079C31.0143 93.1123 30.9453 93.1296 30.8752 93.1295ZM65.8882 91.8995C65.8024 91.8997 65.7185 91.8736 65.648 91.8246C65.5775 91.7757 65.5237 91.7063 65.4939 91.6258C65.4641 91.5453 65.4597 91.4576 65.4813 91.3745C65.5029 91.2914 65.5495 91.217 65.6148 91.1612C66.2503 90.624 66.8902 90.0793 67.5322 89.528C67.6169 89.4554 67.7268 89.419 67.8381 89.4269C67.9494 89.4348 68.0531 89.4863 68.1267 89.5702C68.1629 89.6116 68.1905 89.6599 68.208 89.7121C68.2254 89.7643 68.2323 89.8194 68.2283 89.8743C68.2243 89.9292 68.2094 89.9827 68.1845 90.0318C68.1597 90.0809 68.1253 90.1246 68.0835 90.1603C67.4404 90.7137 66.7994 91.2596 66.1617 91.799C66.0854 91.864 65.9884 91.8996 65.8882 91.8995ZM33.2283 89.6577C33.1513 89.659 33.0756 89.6388 33.0094 89.5996C32.9432 89.5604 32.8892 89.5036 32.8533 89.4355C32.8175 89.3674 32.8012 89.2907 32.8064 89.2139C32.8115 89.1371 32.8378 89.0633 32.8824 89.0005C33.2261 88.5077 33.5796 88.0094 33.9384 87.5068C34.0039 87.4165 34.1022 87.3555 34.2123 87.3371C34.3223 87.3187 34.4351 87.3443 34.5264 87.4084C34.5713 87.4402 34.6095 87.4805 34.6388 87.5271C34.6681 87.5736 34.6879 87.6255 34.697 87.6798C34.7062 87.734 34.7045 87.7896 34.6921 87.8432C34.6797 87.8968 34.6568 87.9474 34.6248 87.9921C34.267 88.4915 33.9168 88.9865 33.5752 89.4761C33.5364 89.5322 33.4846 89.578 33.4241 89.6097C33.3637 89.6413 33.2965 89.6578 33.2283 89.6577ZM69.0801 89.1648C69.0202 89.1649 68.961 89.1521 68.9064 89.1275C68.8518 89.103 68.803 89.067 68.7634 89.0222C68.7268 88.981 68.6989 88.9329 68.6811 88.8808C68.6633 88.8287 68.6561 88.7736 68.6598 88.7187C68.6635 88.6638 68.6781 88.6102 68.7028 88.5609C68.7274 88.5117 68.7616 88.4679 68.8034 88.432C69.4324 87.8851 70.0626 87.3317 70.6971 86.7718C70.7805 86.6976 70.89 86.6597 71.0015 86.6661C71.1129 86.6726 71.2172 86.7231 71.2915 86.8064C71.3283 86.8473 71.3566 86.8951 71.3748 86.947C71.3929 86.999 71.4005 87.054 71.3972 87.1089C71.3939 87.1638 71.3797 87.2175 71.3554 87.2669C71.3312 87.3163 71.2973 87.3603 71.2559 87.3965C70.6203 87.9575 69.988 88.512 69.3578 89.06C69.281 89.1275 69.1823 89.1647 69.0801 89.1648ZM72.2319 86.3881C72.1729 86.3882 72.1145 86.376 72.0605 86.3522C72.0065 86.3283 71.9581 86.2934 71.9185 86.2497C71.8815 86.2089 71.8529 86.1612 71.8345 86.1093C71.8161 86.0574 71.8081 86.0023 71.8111 85.9473C71.8142 85.8923 71.8281 85.8385 71.8521 85.7889C71.876 85.7393 71.9096 85.695 71.9509 85.6585C72.5724 85.1029 73.1971 84.5419 73.823 83.9744C73.9057 83.8999 74.0145 83.861 74.1258 83.866C74.237 83.8711 74.3418 83.9197 74.4175 84.0015C74.4548 84.0419 74.4837 84.0894 74.5026 84.1411C74.5215 84.1928 74.5299 84.2477 74.5274 84.3027C74.5249 84.3577 74.5115 84.4117 74.488 84.4614C74.4645 84.5112 74.4313 84.5558 74.3904 84.5927C73.7624 85.1613 73.1377 85.7244 72.514 86.2811C72.4362 86.35 72.3359 86.388 72.2319 86.3881ZM75.3481 83.5691C75.2634 83.5702 75.1804 83.5454 75.1101 83.4981C75.0398 83.4509 74.9856 83.3833 74.9546 83.3045C74.9236 83.2256 74.9174 83.1392 74.9367 83.0568C74.956 82.9743 75 82.8996 75.0627 82.8428C75.682 82.2762 76.2989 81.7069 76.9132 81.135C76.9951 81.0592 77.1035 81.0187 77.215 81.0223C77.3265 81.026 77.4321 81.0734 77.5088 81.1544C77.5465 81.1945 77.5759 81.2417 77.5953 81.2932C77.6148 81.3447 77.6239 81.3996 77.622 81.4546C77.6202 81.5097 77.6076 81.5638 77.5848 81.6139C77.562 81.6641 77.5296 81.7092 77.4893 81.7467C76.87 82.3229 76.2506 82.8936 75.6334 83.4578C75.5557 83.5294 75.4538 83.5691 75.3481 83.5691ZM78.4286 80.7145C78.3442 80.716 78.2614 80.6919 78.191 80.6453C78.1207 80.5986 78.0662 80.5317 78.0348 80.4534C78.0034 80.3751 77.9965 80.289 78.0151 80.2067C78.0337 80.1244 78.0769 80.0497 78.1389 79.9925C78.7475 79.4207 79.3582 78.8446 79.9689 78.2631C80.0499 78.1865 80.1577 78.1449 80.2691 78.1471C80.3805 78.1493 80.4866 78.1953 80.5644 78.275C80.7244 78.4414 80.719 78.7073 80.5515 78.8673C79.9397 79.451 79.329 80.0282 78.7183 80.601C78.6393 80.6738 78.536 80.7142 78.4286 80.7145ZM81.4745 77.821C81.3908 77.8216 81.3089 77.7971 81.2393 77.7506C81.1697 77.7042 81.1156 77.6379 81.084 77.5604C81.0525 77.4828 81.0449 77.3976 81.0623 77.3158C81.0797 77.2339 81.1213 77.1591 81.1816 77.1011C81.787 76.5194 82.3905 75.9358 82.9921 75.3501C83.1586 75.188 83.4244 75.1923 83.5877 75.3555C83.6265 75.3946 83.6571 75.4411 83.6778 75.4922C83.6985 75.5432 83.7088 75.5979 83.7082 75.653C83.7076 75.7081 83.6961 75.7626 83.6743 75.8132C83.6525 75.8638 83.6208 75.9095 83.5812 75.9478C82.9759 76.538 82.3717 77.1217 81.7675 77.7021C81.6889 77.7781 81.5839 77.8207 81.4745 77.821ZM84.487 74.8929C84.4039 74.8929 84.3227 74.8683 84.2536 74.8222C84.1846 74.776 84.1308 74.7104 84.0991 74.6337C84.0673 74.5569 84.0591 74.4725 84.0755 74.391C84.0918 74.3096 84.1319 74.2348 84.1908 74.1763C84.6329 73.7417 85.075 73.304 85.517 72.8651L85.9786 72.4058C86.0579 72.3272 86.165 72.283 86.2767 72.2828C86.3883 72.2826 86.4956 72.3264 86.5752 72.4047C86.6143 72.4435 86.6452 72.4896 86.6664 72.5404C86.6876 72.5911 86.6986 72.6456 86.6987 72.7006C86.6988 72.7556 86.688 72.8102 86.667 72.861C86.646 72.9119 86.6152 72.9581 86.5763 72.997L86.1126 73.4575C85.6694 73.8974 85.2263 74.3362 84.7831 74.7718C84.7043 74.8497 84.5978 74.8932 84.487 74.8929ZM87.4626 71.9323C87.38 71.9324 87.2991 71.908 87.2303 71.8623C87.1614 71.8166 87.1076 71.7515 87.0756 71.6753C87.0436 71.599 87.0349 71.515 87.0504 71.4339C87.066 71.3527 87.1053 71.2779 87.1632 71.219C87.7577 70.6212 88.3468 70.0246 88.9305 69.4279C89.0088 69.3487 89.1151 69.3034 89.2265 69.3017C89.3379 69.3001 89.4455 69.3423 89.526 69.4193C89.5658 69.4574 89.5976 69.5031 89.6196 69.5536C89.6416 69.6041 89.6534 69.6585 89.6542 69.7136C89.655 69.7687 89.6448 69.8235 89.6243 69.8746C89.6038 69.9258 89.5733 69.9723 89.5347 70.0116C88.9488 70.6093 88.3576 71.2082 87.762 71.808C87.7229 71.8476 87.6762 71.879 87.6248 71.9003C87.5734 71.9216 87.5183 71.9325 87.4626 71.9323ZM90.4059 68.9372C90.2967 68.9374 90.1916 68.8951 90.113 68.8194C90.0731 68.7813 90.0412 68.7357 90.0191 68.6852C89.997 68.6348 89.9852 68.5804 89.9843 68.5253C89.9834 68.4702 89.9934 68.4154 90.0138 68.3642C90.0342 68.313 90.0646 68.2664 90.1032 68.2271C90.6912 67.6218 91.2727 67.0187 91.8499 66.4155C91.9272 66.3351 92.0331 66.2884 92.1446 66.2856C92.2561 66.2828 92.3642 66.324 92.4455 66.4004C92.4856 66.4382 92.5178 66.4835 92.5403 66.5338C92.5628 66.5841 92.5751 66.6383 92.5765 66.6934C92.5779 66.7485 92.5684 66.8033 92.5485 66.8546C92.5286 66.906 92.4987 66.9529 92.4606 66.9927C91.8789 67.6002 91.2948 68.2055 90.7085 68.8086C90.6693 68.8493 90.6223 68.8817 90.5703 68.9038C90.5183 68.9259 90.4624 68.9373 90.4059 68.9372ZM93.3134 65.9064C93.2061 65.9067 93.1028 65.8657 93.0249 65.7918C92.9846 65.7544 92.9521 65.7093 92.9294 65.6592C92.9066 65.6091 92.894 65.555 92.8923 65.5001C92.8906 65.4451 92.8998 65.3903 92.9194 65.3389C92.939 65.2875 92.9686 65.2405 93.0065 65.2006C93.5869 64.5888 94.163 63.9781 94.7316 63.3685C94.8077 63.287 94.9129 63.239 95.0243 63.235C95.1358 63.2309 95.2442 63.2711 95.326 63.3469C95.4968 63.5036 95.5066 63.7684 95.3487 63.9381C94.778 64.5488 94.2019 65.1606 93.6204 65.7746C93.5809 65.8163 93.5333 65.8495 93.4806 65.8722C93.4278 65.8949 93.3709 65.9065 93.3134 65.9064ZM96.1843 62.8421C96.1026 62.8431 96.0225 62.82 95.9538 62.7759C95.8851 62.7317 95.8309 62.6684 95.7978 62.5937C95.7648 62.519 95.7544 62.4362 95.768 62.3557C95.7815 62.2752 95.8184 62.2004 95.8741 62.1406C96.448 61.5213 97.0144 60.903 97.5754 60.2869C97.6509 60.2048 97.7557 60.1557 97.8672 60.1503C97.9786 60.1448 98.0877 60.1834 98.1709 60.2577C98.2118 60.2945 98.245 60.3391 98.2687 60.3888C98.2923 60.4385 98.3058 60.4923 98.3085 60.5473C98.3112 60.6022 98.3031 60.6572 98.2845 60.709C98.2658 60.7607 98.2372 60.8083 98.2001 60.849C97.637 61.4662 97.0684 62.0866 96.4934 62.707C96.4541 62.7498 96.4063 62.7839 96.3531 62.8071C96.2998 62.8304 96.2423 62.8423 96.1843 62.8421ZM99.0151 59.7421C98.9338 59.7431 98.854 59.7204 98.7854 59.6766C98.7169 59.6328 98.6627 59.57 98.6294 59.4958C98.5961 59.4217 98.5852 59.3394 98.598 59.2591C98.6108 59.1788 98.6469 59.104 98.7016 59.0439C99.2669 58.417 99.8268 57.7912 100.379 57.1686C100.453 57.0855 100.558 57.035 100.669 57.0281C100.78 57.0212 100.89 57.0585 100.974 57.1318C101.015 57.1681 101.049 57.2122 101.073 57.2617C101.097 57.3111 101.112 57.3648 101.115 57.4198C101.119 57.4748 101.111 57.5299 101.093 57.5819C101.075 57.634 101.047 57.6819 101.01 57.7231C100.456 58.3467 99.8949 58.9736 99.3275 59.6027C99.2884 59.6469 99.2403 59.6823 99.1864 59.7063C99.1325 59.7304 99.0741 59.7426 99.0151 59.7421ZM101.807 56.6054C101.727 56.6056 101.648 56.5826 101.58 56.5392C101.512 56.4958 101.458 56.4338 101.425 56.3607C101.391 56.2875 101.38 56.2063 101.391 56.1266C101.402 56.047 101.437 55.9723 101.489 55.9115C102.042 55.2815 102.593 54.6492 103.141 54.0146C103.214 53.9302 103.317 53.8781 103.429 53.8696C103.54 53.8611 103.65 53.8969 103.735 53.9692C103.777 54.0047 103.812 54.0482 103.837 54.0972C103.862 54.1461 103.877 54.1996 103.882 54.2545C103.886 54.3094 103.88 54.3646 103.862 54.417C103.845 54.4693 103.818 54.5177 103.782 54.5593C103.232 55.196 102.68 55.8301 102.125 56.4617C102.085 56.5068 102.036 56.543 101.981 56.5678C101.927 56.5926 101.867 56.6054 101.807 56.6054ZM104.555 53.4309C104.475 53.4311 104.396 53.4085 104.329 53.3656C104.261 53.3228 104.207 53.2615 104.173 53.189C104.139 53.1165 104.127 53.0358 104.137 52.9565C104.148 52.8771 104.181 52.8025 104.233 52.7413C104.782 52.0971 105.323 51.4572 105.856 50.8205C105.928 50.7355 106.031 50.6821 106.142 50.672C106.253 50.6619 106.363 50.6959 106.449 50.7665C106.492 50.8014 106.527 50.8444 106.553 50.893C106.579 50.9415 106.595 50.9948 106.6 51.0495C106.605 51.1043 106.599 51.1596 106.583 51.2121C106.566 51.2646 106.54 51.3134 106.505 51.3556C105.969 51.9944 105.427 52.6364 104.877 53.2817C104.837 53.3286 104.788 53.3662 104.732 53.392C104.677 53.4177 104.616 53.431 104.555 53.4309ZM107.255 50.2174C107.175 50.2179 107.097 50.1957 107.03 50.1534C106.962 50.1111 106.909 50.0506 106.874 49.9788C106.84 49.907 106.827 49.8269 106.837 49.748C106.847 49.6691 106.879 49.5946 106.929 49.5332C107.469 48.8804 108 48.2318 108.524 47.5876C108.594 47.5011 108.696 47.446 108.807 47.4342C108.918 47.4225 109.029 47.4551 109.116 47.5249C109.159 47.5594 109.195 47.602 109.221 47.6502C109.248 47.6985 109.264 47.7515 109.27 47.8062C109.276 47.861 109.271 47.9163 109.256 47.9691C109.24 48.022 109.214 48.0712 109.18 48.114C108.655 48.7593 108.123 49.41 107.581 50.065C107.541 50.1128 107.491 50.1513 107.435 50.1776C107.378 50.204 107.317 50.2176 107.255 50.2174ZM109.903 46.9607C109.808 46.9607 109.716 46.9287 109.641 46.8699C109.598 46.836 109.562 46.7938 109.535 46.7458C109.508 46.6977 109.491 46.6448 109.484 46.5901C109.478 46.5355 109.483 46.48 109.498 46.4271C109.513 46.3742 109.539 46.3249 109.573 46.2819C110.103 45.6193 110.623 44.9622 111.133 44.3104C111.202 44.2223 111.302 44.1651 111.413 44.1513C111.524 44.1375 111.636 44.1683 111.724 44.2369C111.908 44.3796 111.941 44.6422 111.799 44.8238C111.287 45.4778 110.765 46.1382 110.234 46.8029C110.194 46.8522 110.143 46.8919 110.086 46.9192C110.029 46.9465 109.966 46.9607 109.903 46.9607ZM112.494 43.6597C112.416 43.6592 112.34 43.637 112.273 43.5958C112.207 43.5545 112.154 43.4957 112.119 43.426C112.085 43.3562 112.07 43.2782 112.077 43.2006C112.084 43.123 112.112 43.0488 112.159 42.9863C112.677 42.3129 113.184 41.646 113.68 40.9856C113.748 40.8965 113.847 40.8376 113.957 40.8216C114.068 40.8056 114.18 40.8339 114.27 40.9002C114.314 40.9329 114.351 40.974 114.38 41.0212C114.408 41.0684 114.427 41.1208 114.435 41.1753C114.443 41.2298 114.44 41.2853 114.426 41.3387C114.412 41.392 114.388 41.4421 114.355 41.486C113.857 42.1497 113.349 42.8188 112.828 43.4954C112.788 43.5467 112.738 43.5882 112.68 43.6168C112.622 43.6453 112.558 43.66 112.494 43.6597ZM115.021 40.3079C114.931 40.3082 114.844 40.2798 114.772 40.2268C114.728 40.1947 114.69 40.154 114.661 40.1071C114.632 40.0602 114.613 40.008 114.604 39.9536C114.596 39.8992 114.598 39.8437 114.611 39.7902C114.624 39.7367 114.648 39.6864 114.68 39.6421C115.185 38.9568 115.678 38.2791 116.157 37.61C116.222 37.5196 116.32 37.4585 116.43 37.4398C116.54 37.4212 116.652 37.4466 116.744 37.5106C116.789 37.5421 116.827 37.5824 116.857 37.6289C116.886 37.6754 116.906 37.7273 116.915 37.7816C116.925 37.8359 116.923 37.8915 116.911 37.9452C116.898 37.9988 116.875 38.0495 116.843 38.0942C116.354 38.7784 115.859 39.4591 115.36 40.136C115.321 40.1895 115.27 40.233 115.211 40.2629C115.152 40.2928 115.087 40.3082 115.021 40.3079ZM117.469 36.902C117.392 36.9035 117.316 36.8834 117.25 36.8442C117.184 36.805 117.13 36.7481 117.094 36.6799C117.058 36.6117 117.042 36.5349 117.047 36.458C117.053 36.3812 117.079 36.3074 117.124 36.2448C117.614 35.5455 118.087 34.8559 118.547 34.1771C118.609 34.085 118.706 34.0212 118.815 33.9998C118.924 33.9783 119.038 34.0009 119.13 34.0625C119.324 34.1912 119.376 34.4517 119.246 34.643C118.786 35.3261 118.308 36.02 117.815 36.7237C117.776 36.779 117.724 36.8241 117.664 36.8552C117.604 36.8862 117.537 36.9023 117.469 36.902ZM119.827 33.4313C119.752 33.4321 119.677 33.4123 119.612 33.3739C119.546 33.3355 119.493 33.2801 119.457 33.2136C119.42 33.147 119.403 33.0718 119.406 32.9961C119.409 32.9204 119.433 32.8471 119.475 32.7839C119.945 32.0683 120.397 31.3647 120.831 30.674C120.89 30.58 120.985 30.5132 121.093 30.4882C121.202 30.4631 121.316 30.4817 121.411 30.54C121.458 30.5688 121.498 30.6066 121.531 30.6512C121.563 30.6958 121.586 30.7464 121.598 30.7999C121.611 30.8535 121.613 30.9089 121.604 30.9632C121.595 31.0175 121.575 31.0694 121.546 31.1161C121.11 31.8122 120.655 32.5212 120.181 33.2411C120.142 33.2995 120.09 33.3475 120.028 33.3807C119.966 33.4139 119.898 33.4313 119.827 33.4313ZM122.068 29.8849C121.994 29.8857 121.921 29.8666 121.856 29.8295C121.792 29.7925 121.738 29.7389 121.701 29.6743C121.665 29.6098 121.646 29.5365 121.647 29.4622C121.648 29.3878 121.669 29.3151 121.707 29.2515C122.154 28.5144 122.575 27.7945 122.974 27.0909C123.029 26.9938 123.12 26.9225 123.228 26.8927C123.336 26.8629 123.451 26.877 123.548 26.932C123.596 26.9588 123.638 26.9948 123.673 27.0381C123.707 27.0813 123.732 27.1309 123.747 27.184C123.762 27.237 123.766 27.2925 123.759 27.3472C123.753 27.4019 123.735 27.4548 123.708 27.5027C123.306 28.2128 122.879 28.9402 122.429 29.6828C122.391 29.7446 122.338 29.7956 122.275 29.8309C122.212 29.8663 122.141 29.8849 122.068 29.8849ZM124.152 26.2467C124.08 26.2469 124.008 26.2284 123.945 26.1929C123.882 26.1574 123.829 26.1061 123.792 26.044C123.754 25.9819 123.733 25.9112 123.731 25.8388C123.729 25.7663 123.746 25.6946 123.78 25.6306C124.192 24.8664 124.573 24.1249 124.922 23.4072C124.971 23.3072 125.058 23.2307 125.163 23.1942C125.269 23.1578 125.384 23.1644 125.485 23.2127C125.534 23.2364 125.579 23.2696 125.616 23.3106C125.652 23.3516 125.681 23.3994 125.699 23.4513C125.717 23.5033 125.725 23.5583 125.722 23.6133C125.719 23.6682 125.704 23.722 125.68 23.7715C125.31 24.5305 124.925 25.2819 124.524 26.0251C124.488 26.0922 124.434 26.1482 124.369 26.1873C124.303 26.2263 124.228 26.2468 124.152 26.2467ZM126.01 22.4885C125.94 22.4893 125.871 22.4725 125.809 22.4396C125.748 22.4068 125.695 22.3589 125.657 22.3005C125.618 22.242 125.595 22.1749 125.59 22.1052C125.584 22.0354 125.596 21.9654 125.624 21.9015C125.981 21.0995 126.294 20.3245 126.557 19.5993C126.576 19.5473 126.605 19.4995 126.642 19.4587C126.679 19.4179 126.724 19.3849 126.775 19.3615C126.825 19.3381 126.879 19.3248 126.934 19.3224C126.989 19.32 127.044 19.3285 127.096 19.3474C127.148 19.3657 127.196 19.3941 127.237 19.4309C127.278 19.4678 127.311 19.5124 127.335 19.5621C127.358 19.6119 127.372 19.6658 127.374 19.7208C127.377 19.7758 127.368 19.8307 127.349 19.8825C127.079 20.6261 126.758 21.4184 126.395 22.2388C126.362 22.3132 126.308 22.3764 126.24 22.4207C126.171 22.465 126.092 22.4886 126.01 22.4885ZM127.475 18.567C127.41 18.5676 127.345 18.5529 127.287 18.5242C127.229 18.4955 127.178 18.4535 127.138 18.4017C127.099 18.3498 127.072 18.2894 127.061 18.2254C127.049 18.1614 127.052 18.0955 127.07 18.0331C127.32 17.164 127.49 16.3609 127.575 15.6465C127.582 15.5917 127.599 15.5388 127.626 15.4908C127.653 15.4427 127.689 15.4005 127.733 15.3665C127.776 15.3324 127.826 15.3073 127.879 15.2925C127.932 15.2776 127.987 15.2734 128.042 15.2801C128.097 15.2861 128.15 15.3029 128.198 15.3296C128.247 15.3563 128.289 15.3923 128.323 15.4355C128.358 15.4788 128.383 15.5283 128.398 15.5814C128.413 15.6345 128.417 15.6901 128.411 15.7448C128.301 16.5976 128.124 17.4402 127.879 18.2644C127.854 18.352 127.801 18.429 127.728 18.4836C127.655 18.5382 127.566 18.5675 127.475 18.567ZM107.949 17.4483C107.857 17.4499 107.767 17.4211 107.693 17.3664C107.619 17.3117 107.566 17.2342 107.54 17.1458C107.515 17.0575 107.52 16.9633 107.553 16.8779C107.587 16.7925 107.648 16.7206 107.727 16.6733C108.468 16.2193 109.195 15.787 109.904 15.3763C110.001 15.3206 110.115 15.3053 110.223 15.3336C110.331 15.3619 110.423 15.4316 110.48 15.5276C110.508 15.5749 110.526 15.6274 110.534 15.6819C110.542 15.7365 110.538 15.7919 110.524 15.8452C110.51 15.8984 110.485 15.9482 110.452 15.9919C110.418 16.0355 110.376 16.0721 110.329 16.0994C109.624 16.5069 108.904 16.9349 108.17 17.3856C108.104 17.427 108.027 17.4487 107.949 17.4483ZM111.581 15.3287C111.488 15.3308 111.396 15.3012 111.321 15.2447C111.247 15.1883 111.193 15.1083 111.169 15.0176C111.146 14.927 111.154 14.831 111.191 14.7453C111.229 14.6595 111.294 14.589 111.377 14.5451C112.118 14.1357 112.866 13.7397 113.621 13.3572C113.721 13.3071 113.836 13.2984 113.942 13.3328C114.048 13.3672 114.136 13.442 114.187 13.5409C114.213 13.59 114.228 13.6435 114.232 13.6985C114.236 13.7534 114.23 13.8087 114.212 13.861C114.195 13.9134 114.168 13.9618 114.132 14.0035C114.096 14.0452 114.052 14.0794 114.003 14.1041C113.285 14.4662 112.547 14.8574 111.785 15.2768C111.722 15.3112 111.652 15.3291 111.581 15.3287ZM128.039 14.4456C127.934 14.4457 127.832 14.4062 127.755 14.3349C127.677 14.2636 127.629 14.1658 127.621 14.0608C127.55 13.1875 127.295 12.486 126.864 11.978C126.828 11.936 126.801 11.8873 126.785 11.8349C126.768 11.7824 126.762 11.7272 126.767 11.6723C126.771 11.6174 126.787 11.5641 126.812 11.5152C126.838 11.4664 126.873 11.4231 126.915 11.3878C127.001 11.3162 127.111 11.2813 127.223 11.2908C127.334 11.3003 127.437 11.3534 127.509 11.4386C128.055 12.0828 128.376 12.9432 128.46 13.9949C128.465 14.0499 128.458 14.1052 128.441 14.1576C128.424 14.2101 128.397 14.2586 128.361 14.3005C128.325 14.3424 128.282 14.3768 128.232 14.4017C128.183 14.4266 128.13 14.4415 128.075 14.4456H128.039ZM115.325 13.4123C115.229 13.4134 115.136 13.3816 115.061 13.3223C114.986 13.2629 114.933 13.1796 114.913 13.0863C114.892 12.9929 114.903 12.8952 114.946 12.8096C114.989 12.7239 115.059 12.6555 115.146 12.6157C115.955 12.2374 116.742 11.8947 117.484 11.5997C117.588 11.558 117.703 11.559 117.806 11.6026C117.909 11.6462 117.99 11.7287 118.032 11.832C118.053 11.8831 118.063 11.9376 118.062 11.9926C118.062 12.0476 118.05 12.1019 118.028 12.1524C118.007 12.203 117.975 12.2487 117.936 12.287C117.896 12.3253 117.85 12.3555 117.799 12.3757C117.071 12.6654 116.299 13.0016 115.505 13.3723C115.448 13.3986 115.387 13.4122 115.325 13.4123ZM119.22 11.8223C119.121 11.8229 119.024 11.788 118.948 11.7238C118.872 11.6597 118.821 11.5706 118.805 11.4724C118.789 11.3743 118.808 11.2735 118.859 11.1883C118.911 11.1031 118.991 11.0389 119.085 11.0073C119.969 10.709 120.805 10.4777 121.568 10.3199C121.622 10.3085 121.677 10.3079 121.731 10.318C121.785 10.3281 121.837 10.3487 121.883 10.3787C121.929 10.4087 121.968 10.4475 122 10.4929C122.031 10.5382 122.052 10.5893 122.064 10.6431C122.075 10.6969 122.076 10.7524 122.066 10.8064C122.056 10.8605 122.035 10.912 122.005 10.9581C121.975 11.0041 121.936 11.0438 121.891 11.0749C121.845 11.106 121.794 11.1278 121.741 11.1392C121.01 11.2905 120.209 11.5132 119.357 11.8007C119.313 11.8152 119.267 11.8225 119.22 11.8223ZM125.813 11.1889C125.764 11.1888 125.714 11.18 125.667 11.163C125.044 10.9327 124.26 10.8474 123.35 10.91C123.122 10.9122 122.918 10.7522 122.9 10.5209C122.894 10.41 122.931 10.3008 123.004 10.2172C123.077 10.1336 123.181 10.0823 123.292 10.0745C124.328 10.0043 125.223 10.1059 125.96 10.3783C126.053 10.4123 126.13 10.4778 126.179 10.5632C126.227 10.6486 126.245 10.7485 126.227 10.8453C126.209 10.942 126.158 11.0295 126.083 11.0923C126.007 11.1552 125.912 11.1894 125.813 11.1889Z" fill="#D9332E"/>
</svg>
