<svg width="898" height="63" viewBox="0 0 898 63" fill="none" xmlns="http://www.w3.org/2000/svg">
<rect y="35" width="898" height="28" rx="2" fill="#023D58"/>
<rect x="70" width="769" height="44" fill="#C5DBE5"/>
<path d="M385.224 22.9648H382.58C382.531 22.6228 382.433 22.3189 382.284 22.0533C382.135 21.7836 381.944 21.5542 381.71 21.3651C381.477 21.1759 381.207 21.031 380.901 20.9304C380.6 20.8298 380.272 20.7795 379.917 20.7795C379.278 20.7795 378.72 20.9384 378.245 21.2564C377.77 21.5703 377.402 22.0291 377.14 22.6328C376.879 23.2325 376.748 23.9609 376.748 24.8182C376.748 25.6996 376.879 26.4401 377.14 27.0398C377.406 27.6394 377.776 28.0922 378.251 28.3981C378.726 28.704 379.276 28.8569 379.899 28.8569C380.25 28.8569 380.573 28.8106 380.871 28.718C381.173 28.6255 381.441 28.4906 381.674 28.3136C381.908 28.1325 382.101 27.9131 382.254 27.6555C382.411 27.398 382.519 27.1042 382.58 26.7741L385.224 26.7862C385.156 27.3537 384.984 27.901 384.711 28.4283C384.441 28.9515 384.077 29.4203 383.618 29.8349C383.163 30.2454 382.62 30.5714 381.988 30.8129C381.36 31.0503 380.65 31.169 379.857 31.169C378.754 31.169 377.768 30.9195 376.899 30.4205C376.034 29.9214 375.35 29.199 374.846 28.2532C374.347 27.3074 374.098 26.1624 374.098 24.8182C374.098 23.4699 374.351 22.3229 374.859 21.3771C375.366 20.4313 376.054 19.7109 376.923 19.2159C377.792 18.7169 378.77 18.4673 379.857 18.4673C380.573 18.4673 381.238 18.5679 381.849 18.7692C382.465 18.9704 383.01 19.2642 383.485 19.6506C383.96 20.0329 384.347 20.5018 384.644 21.0572C384.946 21.6126 385.139 22.2485 385.224 22.9648ZM392.996 27.0518V21.7273H395.568V31H393.099V29.3157H393.003C392.793 29.859 392.445 30.2957 391.958 30.6257C391.475 30.9557 390.886 31.1207 390.189 31.1207C389.57 31.1207 389.024 30.9799 388.553 30.6982C388.082 30.4164 387.714 30.016 387.449 29.4968C387.187 28.9776 387.054 28.3558 387.05 27.6314V21.7273H389.622V27.1726C389.626 27.7199 389.773 28.1526 390.063 28.4705C390.352 28.7885 390.741 28.9474 391.228 28.9474C391.538 28.9474 391.827 28.877 392.097 28.7362C392.367 28.5913 392.584 28.378 392.749 28.0962C392.918 27.8145 393.001 27.4664 392.996 27.0518ZM397.625 31V21.7273H400.119V23.3452H400.215C400.384 22.7696 400.668 22.335 401.066 22.0412C401.465 21.7434 401.924 21.5945 402.443 21.5945C402.572 21.5945 402.71 21.6025 402.859 21.6186C403.008 21.6347 403.139 21.6568 403.252 21.685V23.967C403.131 23.9308 402.964 23.8986 402.751 23.8704C402.537 23.8422 402.342 23.8281 402.165 23.8281C401.787 23.8281 401.449 23.9106 401.151 24.0756C400.857 24.2366 400.624 24.462 400.451 24.7518C400.282 25.0415 400.197 25.3756 400.197 25.7539V31H397.625ZM412.297 24.3714L409.942 24.5163C409.902 24.3151 409.815 24.134 409.683 23.973C409.55 23.808 409.375 23.6772 409.157 23.5806C408.944 23.48 408.688 23.4297 408.391 23.4297C407.992 23.4297 407.656 23.5142 407.382 23.6832C407.109 23.8482 406.972 24.0696 406.972 24.3473C406.972 24.5687 407.061 24.7558 407.238 24.9087C407.415 25.0617 407.719 25.1844 408.149 25.277L409.827 25.6151C410.729 25.8002 411.401 26.098 411.844 26.5085C412.286 26.919 412.508 27.4583 412.508 28.1264C412.508 28.7341 412.329 29.2674 411.971 29.7262C411.616 30.185 411.129 30.5432 410.51 30.8008C409.894 31.0543 409.184 31.1811 408.379 31.1811C407.151 31.1811 406.173 30.9255 405.445 30.4144C404.72 29.8993 404.296 29.199 404.171 28.3136L406.7 28.1808C406.777 28.555 406.962 28.8408 407.256 29.038C407.55 29.2312 407.926 29.3278 408.385 29.3278C408.835 29.3278 409.198 29.2412 409.471 29.0682C409.749 28.8911 409.89 28.6637 409.894 28.386C409.89 28.1526 409.791 27.9614 409.598 27.8125C409.405 27.6596 409.107 27.5429 408.705 27.4624L407.099 27.1424C406.193 26.9613 405.519 26.6474 405.076 26.2006C404.638 25.7539 404.418 25.1844 404.418 24.4922C404.418 23.8965 404.579 23.3834 404.901 22.9528C405.227 22.5221 405.684 22.1901 406.272 21.9567C406.863 21.7232 407.556 21.6065 408.348 21.6065C409.52 21.6065 410.441 21.854 411.113 22.3491C411.789 22.8441 412.184 23.5182 412.297 24.3714ZM418.317 31.1811C417.379 31.1811 416.568 30.9819 415.884 30.5835C415.204 30.181 414.679 29.6216 414.308 28.9052C413.938 28.1848 413.753 27.3497 413.753 26.3999C413.753 25.442 413.938 24.6049 414.308 23.8885C414.679 23.1681 415.204 22.6087 415.884 22.2102C416.568 21.8078 417.379 21.6065 418.317 21.6065C419.255 21.6065 420.064 21.8078 420.744 22.2102C421.428 22.6087 421.955 23.1681 422.325 23.8885C422.696 24.6049 422.881 25.442 422.881 26.3999C422.881 27.3497 422.696 28.1848 422.325 28.9052C421.955 29.6216 421.428 30.181 420.744 30.5835C420.064 30.9819 419.255 31.1811 418.317 31.1811ZM418.329 29.1889C418.756 29.1889 419.112 29.0682 419.397 28.8267C419.683 28.5812 419.899 28.2472 420.043 27.8246C420.192 27.402 420.267 26.921 420.267 26.3817C420.267 25.8424 420.192 25.3615 420.043 24.9389C419.899 24.5163 419.683 24.1823 419.397 23.9368C419.112 23.6913 418.756 23.5685 418.329 23.5685C417.898 23.5685 417.536 23.6913 417.242 23.9368C416.953 24.1823 416.733 24.5163 416.584 24.9389C416.439 25.3615 416.367 25.8424 416.367 26.3817C416.367 26.921 416.439 27.402 416.584 27.8246C416.733 28.2472 416.953 28.5812 417.242 28.8267C417.536 29.0682 417.898 29.1889 418.329 29.1889ZM432.268 24.3714L429.914 24.5163C429.874 24.3151 429.787 24.134 429.654 23.973C429.521 23.808 429.346 23.6772 429.129 23.5806C428.916 23.48 428.66 23.4297 428.362 23.4297C427.964 23.4297 427.628 23.5142 427.354 23.6832C427.08 23.8482 426.944 24.0696 426.944 24.3473C426.944 24.5687 427.032 24.7558 427.209 24.9087C427.386 25.0617 427.69 25.1844 428.121 25.277L429.799 25.6151C430.701 25.8002 431.373 26.098 431.815 26.5085C432.258 26.919 432.48 27.4583 432.48 28.1264C432.48 28.7341 432.3 29.2674 431.942 29.7262C431.588 30.185 431.101 30.5432 430.481 30.8008C429.866 31.0543 429.155 31.1811 428.35 31.1811C427.123 31.1811 426.145 30.9255 425.416 30.4144C424.692 29.8993 424.267 29.199 424.143 28.3136L426.672 28.1808C426.748 28.555 426.934 28.8408 427.227 29.038C427.521 29.2312 427.897 29.3278 428.356 29.3278C428.807 29.3278 429.169 29.2412 429.443 29.0682C429.721 28.8911 429.862 28.6637 429.866 28.386C429.862 28.1526 429.763 27.9614 429.57 27.8125C429.377 27.6596 429.079 27.5429 428.676 27.4624L427.07 27.1424C426.165 26.9613 425.491 26.6474 425.048 26.2006C424.609 25.7539 424.39 25.1844 424.39 24.4922C424.39 23.8965 424.551 23.3834 424.873 22.9528C425.199 22.5221 425.656 22.1901 426.243 21.9567C426.835 21.7232 427.527 21.6065 428.32 21.6065C429.491 21.6065 430.413 21.854 431.085 22.3491C431.761 22.8441 432.156 23.5182 432.268 24.3714ZM442.465 31H438.082V18.6364H442.501C443.744 18.6364 444.815 18.8839 445.712 19.3789C446.61 19.8699 447.3 20.5762 447.783 21.4979C448.27 22.4195 448.514 23.5223 448.514 24.8061C448.514 26.094 448.27 27.2008 447.783 28.1264C447.3 29.0521 446.606 29.7624 445.7 30.2575C444.799 30.7525 443.72 31 442.465 31ZM440.696 28.7603H442.356C443.129 28.7603 443.779 28.6235 444.306 28.3498C444.837 28.0721 445.236 27.6435 445.501 27.0639C445.771 26.4804 445.906 25.7277 445.906 24.8061C445.906 23.8925 445.771 23.146 445.501 22.5664C445.236 21.9869 444.839 21.5603 444.312 21.2866C443.785 21.0129 443.135 20.8761 442.362 20.8761H440.696V28.7603ZM450.402 31V21.7273H452.973V31H450.402ZM451.694 20.532C451.311 20.532 450.983 20.4052 450.71 20.1516C450.44 19.8941 450.305 19.5862 450.305 19.228C450.305 18.8738 450.44 18.57 450.71 18.3164C450.983 18.0588 451.311 17.93 451.694 17.93C452.076 17.93 452.402 18.0588 452.672 18.3164C452.945 18.57 453.082 18.8738 453.082 19.228C453.082 19.5862 452.945 19.8941 452.672 20.1516C452.402 20.4052 452.076 20.532 451.694 20.532ZM462.749 24.3714L460.394 24.5163C460.354 24.3151 460.268 24.134 460.135 23.973C460.002 23.808 459.827 23.6772 459.609 23.5806C459.396 23.48 459.141 23.4297 458.843 23.4297C458.444 23.4297 458.108 23.5142 457.835 23.6832C457.561 23.8482 457.424 24.0696 457.424 24.3473C457.424 24.5687 457.513 24.7558 457.69 24.9087C457.867 25.0617 458.171 25.1844 458.601 25.277L460.28 25.6151C461.181 25.8002 461.853 26.098 462.296 26.5085C462.739 26.919 462.96 27.4583 462.96 28.1264C462.96 28.7341 462.781 29.2674 462.423 29.7262C462.069 30.185 461.582 30.5432 460.962 30.8008C460.346 31.0543 459.636 31.1811 458.831 31.1811C457.603 31.1811 456.625 30.9255 455.897 30.4144C455.172 29.8993 454.748 29.199 454.623 28.3136L457.152 28.1808C457.229 28.555 457.414 28.8408 457.708 29.038C458.002 29.2312 458.378 29.3278 458.837 29.3278C459.288 29.3278 459.65 29.2412 459.923 29.0682C460.201 28.8911 460.342 28.6637 460.346 28.386C460.342 28.1526 460.243 27.9614 460.05 27.8125C459.857 27.6596 459.559 27.5429 459.157 27.4624L457.551 27.1424C456.645 26.9613 455.971 26.6474 455.529 26.2006C455.09 25.7539 454.871 25.1844 454.871 24.4922C454.871 23.8965 455.031 23.3834 455.353 22.9528C455.679 22.5221 456.136 22.1901 456.724 21.9567C457.315 21.7232 458.008 21.6065 458.801 21.6065C459.972 21.6065 460.893 21.854 461.565 22.3491C462.242 22.8441 462.636 23.5182 462.749 24.3714ZM464.579 34.4773V21.7273H467.115V23.2848H467.23C467.342 23.0353 467.505 22.7817 467.719 22.5241C467.936 22.2625 468.218 22.0452 468.564 21.8722C468.914 21.6951 469.349 21.6065 469.868 21.6065C470.544 21.6065 471.168 21.7836 471.739 22.1378C472.311 22.4879 472.767 23.0172 473.11 23.7255C473.452 24.4298 473.623 25.3132 473.623 26.3757C473.623 27.41 473.456 28.2834 473.122 28.9957C472.792 29.7041 472.341 30.2414 471.769 30.6076C471.202 30.9698 470.566 31.1509 469.862 31.1509C469.363 31.1509 468.938 31.0684 468.588 30.9034C468.242 30.7384 467.958 30.5311 467.737 30.2816C467.515 30.0281 467.346 29.7725 467.23 29.5149H467.151V34.4773H464.579ZM467.097 26.3636C467.097 26.915 467.173 27.396 467.326 27.8065C467.479 28.217 467.7 28.5369 467.99 28.7663C468.28 28.9917 468.632 29.1044 469.047 29.1044C469.465 29.1044 469.819 28.9897 470.109 28.7603C470.399 28.5269 470.618 28.2049 470.767 27.7944C470.92 27.3799 470.997 26.9029 470.997 26.3636C470.997 25.8284 470.922 25.3575 470.773 24.951C470.624 24.5445 470.405 24.2266 470.115 23.9972C469.825 23.7678 469.469 23.6531 469.047 23.6531C468.628 23.6531 468.274 23.7637 467.984 23.9851C467.698 24.2064 467.479 24.5204 467.326 24.9268C467.173 25.3333 467.097 25.8123 467.097 26.3636ZM479.527 31.1811C478.589 31.1811 477.778 30.9819 477.094 30.5835C476.414 30.181 475.889 29.6216 475.518 28.9052C475.148 28.1848 474.963 27.3497 474.963 26.3999C474.963 25.442 475.148 24.6049 475.518 23.8885C475.889 23.1681 476.414 22.6087 477.094 22.2102C477.778 21.8078 478.589 21.6065 479.527 21.6065C480.465 21.6065 481.274 21.8078 481.954 22.2102C482.638 22.6087 483.165 23.1681 483.535 23.8885C483.906 24.6049 484.091 25.442 484.091 26.3999C484.091 27.3497 483.906 28.1848 483.535 28.9052C483.165 29.6216 482.638 30.181 481.954 30.5835C481.274 30.9819 480.465 31.1811 479.527 31.1811ZM479.539 29.1889C479.966 29.1889 480.322 29.0682 480.607 28.8267C480.893 28.5812 481.109 28.2472 481.253 27.8246C481.402 27.402 481.477 26.921 481.477 26.3817C481.477 25.8424 481.402 25.3615 481.253 24.9389C481.109 24.5163 480.893 24.1823 480.607 23.9368C480.322 23.6913 479.966 23.5685 479.539 23.5685C479.108 23.5685 478.746 23.6913 478.452 23.9368C478.162 24.1823 477.943 24.5163 477.794 24.9389C477.649 25.3615 477.577 25.8424 477.577 26.3817C477.577 26.921 477.649 27.402 477.794 27.8246C477.943 28.2472 478.162 28.5812 478.452 28.8267C478.746 29.0682 479.108 29.1889 479.539 29.1889ZM488.335 25.6392V31H485.763V21.7273H488.214V23.3633H488.323C488.528 22.824 488.872 22.3974 489.355 22.0835C489.838 21.7655 490.424 21.6065 491.112 21.6065C491.756 21.6065 492.317 21.7474 492.796 22.0291C493.275 22.3108 493.647 22.7133 493.913 23.2365C494.178 23.7557 494.311 24.3755 494.311 25.0959V31H491.74V25.5547C491.744 24.9872 491.599 24.5445 491.305 24.2266C491.011 23.9046 490.607 23.7436 490.091 23.7436C489.745 23.7436 489.439 23.8181 489.174 23.967C488.912 24.1159 488.707 24.3332 488.558 24.619C488.413 24.9007 488.339 25.2408 488.335 25.6392ZM496.338 31V21.7273H498.91V31H496.338ZM496.706 20.532L497.986 17.7852H500.365L498.524 20.532H496.706ZM509.615 21.7273L506.373 31H503.475L500.234 21.7273H502.95L504.876 28.3619H504.973L506.892 21.7273H509.615ZM514.858 31.1811C513.904 31.1811 513.083 30.9879 512.395 30.6016C511.711 30.2112 511.184 29.6598 510.813 28.9474C510.443 28.2311 510.258 27.3839 510.258 26.4059C510.258 25.4521 510.443 24.6149 510.813 23.8945C511.184 23.1741 511.705 22.6127 512.377 22.2102C513.053 21.8078 513.846 21.6065 514.755 21.6065C515.367 21.6065 515.937 21.7051 516.464 21.9023C516.995 22.0955 517.458 22.3873 517.852 22.7777C518.251 23.1681 518.561 23.6591 518.782 24.2507C519.003 24.8383 519.114 25.5265 519.114 26.3153V27.0217H511.284V25.4279H516.693C516.693 25.0576 516.613 24.7296 516.452 24.4439C516.291 24.1581 516.067 23.9348 515.782 23.7738C515.5 23.6088 515.172 23.5263 514.798 23.5263C514.407 23.5263 514.061 23.6168 513.759 23.7979C513.461 23.975 513.228 24.2145 513.059 24.5163C512.89 24.8142 512.803 25.1462 512.799 25.5124V27.0277C512.799 27.4865 512.884 27.8829 513.053 28.217C513.226 28.551 513.47 28.8086 513.783 28.9897C514.097 29.1708 514.47 29.2614 514.9 29.2614C515.186 29.2614 515.448 29.2211 515.685 29.1406C515.923 29.0601 516.126 28.9394 516.295 28.7784C516.464 28.6174 516.593 28.4202 516.681 28.1868L519.06 28.3438C518.939 28.9152 518.691 29.4143 518.317 29.8409C517.947 30.2635 517.468 30.5935 516.88 30.831C516.297 31.0644 515.623 31.1811 514.858 31.1811ZM520.792 31V21.7273H523.364V31H520.792ZM522.084 20.532C521.702 20.532 521.374 20.4052 521.1 20.1516C520.831 19.8941 520.696 19.5862 520.696 19.228C520.696 18.8738 520.831 18.57 521.1 18.3164C521.374 18.0588 521.702 17.93 522.084 17.93C522.467 17.93 522.793 18.0588 523.062 18.3164C523.336 18.57 523.473 18.8738 523.473 19.228C523.473 19.5862 523.336 19.8941 523.062 20.1516C522.793 20.4052 522.467 20.532 522.084 20.532ZM533.139 24.3714L530.785 24.5163C530.745 24.3151 530.658 24.134 530.525 23.973C530.393 23.808 530.217 23.6772 530 23.5806C529.787 23.48 529.531 23.4297 529.233 23.4297C528.835 23.4297 528.499 23.5142 528.225 23.6832C527.952 23.8482 527.815 24.0696 527.815 24.3473C527.815 24.5687 527.903 24.7558 528.08 24.9087C528.257 25.0617 528.561 25.1844 528.992 25.277L530.67 25.6151C531.572 25.8002 532.244 26.098 532.687 26.5085C533.129 26.919 533.351 27.4583 533.351 28.1264C533.351 28.7341 533.172 29.2674 532.813 29.7262C532.459 30.185 531.972 30.5432 531.352 30.8008C530.737 31.0543 530.026 31.1811 529.221 31.1811C527.994 31.1811 527.016 30.9255 526.287 30.4144C525.563 29.8993 525.138 29.199 525.014 28.3136L527.543 28.1808C527.62 28.555 527.805 28.8408 528.098 29.038C528.392 29.2312 528.769 29.3278 529.227 29.3278C529.678 29.3278 530.04 29.2412 530.314 29.0682C530.592 28.8911 530.733 28.6637 530.737 28.386C530.733 28.1526 530.634 27.9614 530.441 27.8125C530.248 27.6596 529.95 27.5429 529.547 27.4624L527.942 27.1424C527.036 26.9613 526.362 26.6474 525.919 26.2006C525.48 25.7539 525.261 25.1844 525.261 24.4922C525.261 23.8965 525.422 23.3834 525.744 22.9528C526.07 22.5221 526.527 22.1901 527.114 21.9567C527.706 21.7232 528.398 21.6065 529.191 21.6065C530.362 21.6065 531.284 21.854 531.956 22.3491C532.632 22.8441 533.027 23.5182 533.139 24.3714Z" fill="#164877"/>
</svg>
