<svg width="899" height="76" viewBox="0 0 899 76" fill="none" xmlns="http://www.w3.org/2000/svg">
<rect y="27" width="899" height="49" rx="2" fill="#023D58"/>
<rect x="62" width="769" height="39" rx="2" fill="#729AA9"/>
<path d="M332.616 25V12.6364H337.494C338.432 12.6364 339.231 12.8155 339.891 13.1737C340.551 13.5278 341.054 14.0208 341.4 14.6527C341.75 15.2805 341.925 16.005 341.925 16.826C341.925 17.647 341.748 18.3714 341.394 18.9993C341.04 19.6271 340.527 20.1161 339.855 20.4663C339.187 20.8164 338.378 20.9915 337.428 20.9915H334.319V18.8967H337.005C337.508 18.8967 337.923 18.8101 338.249 18.6371C338.579 18.46 338.824 18.2165 338.985 17.9066C339.15 17.5927 339.233 17.2325 339.233 16.826C339.233 16.4155 339.15 16.0573 338.985 15.7514C338.824 15.4415 338.579 15.2021 338.249 15.033C337.919 14.86 337.5 14.7734 336.993 14.7734H335.23V25H332.616ZM343.575 25V15.7273H346.068V17.3452H346.165C346.334 16.7696 346.618 16.335 347.016 16.0412C347.414 15.7434 347.873 15.5945 348.392 15.5945C348.521 15.5945 348.66 15.6025 348.809 15.6186C348.958 15.6347 349.089 15.6568 349.201 15.685V17.967C349.081 17.9308 348.914 17.8986 348.7 17.8704C348.487 17.8422 348.292 17.8281 348.115 17.8281C347.736 17.8281 347.398 17.9106 347.101 18.0756C346.807 18.2366 346.573 18.462 346.4 18.7518C346.231 19.0415 346.147 19.3756 346.147 19.7539V25H343.575ZM354.325 25.1811C353.371 25.1811 352.55 24.9879 351.862 24.6016C351.178 24.2112 350.651 23.6598 350.281 22.9474C349.91 22.2311 349.725 21.3839 349.725 20.4059C349.725 19.4521 349.91 18.6149 350.281 17.8945C350.651 17.1741 351.172 16.6127 351.844 16.2102C352.52 15.8078 353.313 15.6065 354.223 15.6065C354.834 15.6065 355.404 15.7051 355.931 15.9023C356.462 16.0955 356.925 16.3873 357.32 16.7777C357.718 17.1681 358.028 17.6591 358.249 18.2507C358.471 18.8383 358.581 19.5265 358.581 20.3153V21.0217H350.751V19.4279H356.161C356.161 19.0576 356.08 18.7296 355.919 18.4439C355.758 18.1581 355.535 17.9348 355.249 17.7738C354.967 17.6088 354.639 17.5263 354.265 17.5263C353.875 17.5263 353.528 17.6168 353.227 17.7979C352.929 17.975 352.695 18.2145 352.526 18.5163C352.357 18.8142 352.271 19.1462 352.267 19.5124V21.0277C352.267 21.4865 352.351 21.8829 352.52 22.217C352.693 22.551 352.937 22.8086 353.251 22.9897C353.565 23.1708 353.937 23.2614 354.368 23.2614C354.653 23.2614 354.915 23.2211 355.152 23.1406C355.39 23.0601 355.593 22.9394 355.762 22.7784C355.931 22.6174 356.06 22.4202 356.148 22.1868L358.527 22.3438C358.406 22.9152 358.159 23.4143 357.784 23.8409C357.414 24.2635 356.935 24.5935 356.348 24.831C355.764 25.0644 355.09 25.1811 354.325 25.1811ZM360.26 28.4773V15.7273H362.795V17.2848H362.91C363.022 17.0353 363.185 16.7817 363.399 16.5241C363.616 16.2625 363.898 16.0452 364.244 15.8722C364.594 15.6951 365.029 15.6065 365.548 15.6065C366.224 15.6065 366.848 15.7836 367.419 16.1378C367.991 16.4879 368.448 17.0172 368.79 17.7255C369.132 18.4298 369.303 19.3132 369.303 20.3757C369.303 21.41 369.136 22.2834 368.802 22.9957C368.472 23.7041 368.021 24.2414 367.45 24.6076C366.882 24.9698 366.246 25.1509 365.542 25.1509C365.043 25.1509 364.618 25.0684 364.268 24.9034C363.922 24.7384 363.638 24.5311 363.417 24.2816C363.196 24.0281 363.027 23.7725 362.91 23.5149H362.831V28.4773H360.26ZM362.777 20.3636C362.777 20.915 362.853 21.396 363.006 21.8065C363.159 22.217 363.381 22.5369 363.67 22.7663C363.96 22.9917 364.312 23.1044 364.727 23.1044C365.145 23.1044 365.5 22.9897 365.789 22.7603C366.079 22.5269 366.299 22.2049 366.447 21.7944C366.6 21.3799 366.677 20.9029 366.677 20.3636C366.677 19.8284 366.602 19.3575 366.453 18.951C366.305 18.5445 366.085 18.2266 365.795 17.9972C365.506 17.7678 365.149 17.6531 364.727 17.6531C364.308 17.6531 363.954 17.7637 363.664 17.9851C363.379 18.2064 363.159 18.5204 363.006 18.9268C362.853 19.3333 362.777 19.8123 362.777 20.3636ZM373.662 25.1751C373.07 25.1751 372.543 25.0724 372.08 24.8672C371.617 24.6579 371.251 24.35 370.981 23.9435C370.716 23.533 370.583 23.0219 370.583 22.4102C370.583 21.895 370.677 21.4624 370.866 21.1122C371.056 20.7621 371.313 20.4804 371.639 20.267C371.965 20.0537 372.335 19.8928 372.75 19.7841C373.169 19.6754 373.607 19.599 374.066 19.5547C374.605 19.4983 375.04 19.446 375.37 19.3977C375.7 19.3454 375.94 19.2689 376.088 19.1683C376.237 19.0677 376.312 18.9188 376.312 18.7216V18.6854C376.312 18.303 376.191 18.0072 375.95 17.7979C375.712 17.5887 375.374 17.484 374.935 17.484C374.473 17.484 374.104 17.5866 373.831 17.7919C373.557 17.9931 373.376 18.2467 373.287 18.5526L370.909 18.3594C371.029 17.7959 371.267 17.3089 371.621 16.8984C371.975 16.4839 372.432 16.166 372.991 15.9446C373.555 15.7192 374.207 15.6065 374.947 15.6065C375.463 15.6065 375.956 15.6669 376.426 15.7876C376.901 15.9084 377.322 16.0955 377.688 16.3491C378.058 16.6026 378.35 16.9286 378.564 17.3271C378.777 17.7215 378.884 18.1944 378.884 18.7457V25H376.445V23.7141H376.372C376.223 24.0039 376.024 24.2595 375.774 24.4808C375.525 24.6982 375.225 24.8692 374.875 24.994C374.525 25.1147 374.12 25.1751 373.662 25.1751ZM374.398 23.4002C374.776 23.4002 375.11 23.3258 375.4 23.1768C375.69 23.0239 375.917 22.8187 376.082 22.5611C376.247 22.3035 376.33 22.0117 376.33 21.6857V20.7017C376.249 20.754 376.139 20.8023 375.998 20.8466C375.861 20.8868 375.706 20.9251 375.533 20.9613C375.36 20.9935 375.187 21.0237 375.014 21.0518C374.841 21.076 374.684 21.0981 374.543 21.1183C374.241 21.1625 373.977 21.233 373.752 21.3295C373.527 21.4261 373.352 21.5569 373.227 21.7219C373.102 21.8829 373.04 22.0842 373.04 22.3256C373.04 22.6758 373.167 22.9434 373.42 23.1286C373.678 23.3097 374.004 23.4002 374.398 23.4002ZM380.879 25V15.7273H383.372V17.3452H383.469C383.638 16.7696 383.921 16.335 384.32 16.0412C384.718 15.7434 385.177 15.5945 385.696 15.5945C385.825 15.5945 385.964 15.6025 386.113 15.6186C386.262 15.6347 386.392 15.6568 386.505 15.685V17.967C386.384 17.9308 386.217 17.8986 386.004 17.8704C385.791 17.8422 385.596 17.8281 385.418 17.8281C385.04 17.8281 384.702 17.9106 384.404 18.0756C384.11 18.2366 383.877 18.462 383.704 18.7518C383.535 19.0415 383.45 19.3756 383.45 19.7539V25H380.879ZM390.213 25.1751C389.622 25.1751 389.094 25.0724 388.632 24.8672C388.169 24.6579 387.803 24.35 387.533 23.9435C387.267 23.533 387.134 23.0219 387.134 22.4102C387.134 21.895 387.229 21.4624 387.418 21.1122C387.607 20.7621 387.865 20.4804 388.191 20.267C388.517 20.0537 388.887 19.8928 389.302 19.7841C389.72 19.6754 390.159 19.599 390.618 19.5547C391.157 19.4983 391.592 19.446 391.922 19.3977C392.252 19.3454 392.491 19.2689 392.64 19.1683C392.789 19.0677 392.864 18.9188 392.864 18.7216V18.6854C392.864 18.303 392.743 18.0072 392.501 17.7979C392.264 17.5887 391.926 17.484 391.487 17.484C391.024 17.484 390.656 17.5866 390.382 17.7919C390.109 17.9931 389.928 18.2467 389.839 18.5526L387.46 18.3594C387.581 17.7959 387.819 17.3089 388.173 16.8984C388.527 16.4839 388.984 16.166 389.543 15.9446C390.107 15.7192 390.759 15.6065 391.499 15.6065C392.014 15.6065 392.507 15.6669 392.978 15.7876C393.453 15.9084 393.874 16.0955 394.24 16.3491C394.61 16.6026 394.902 16.9286 395.115 17.3271C395.329 17.7215 395.435 18.1944 395.435 18.7457V25H392.996V23.7141H392.924C392.775 24.0039 392.576 24.2595 392.326 24.4808C392.077 24.6982 391.777 24.8692 391.427 24.994C391.077 25.1147 390.672 25.1751 390.213 25.1751ZM390.95 23.4002C391.328 23.4002 391.662 23.3258 391.952 23.1768C392.242 23.0239 392.469 22.8187 392.634 22.5611C392.799 22.3035 392.882 22.0117 392.882 21.6857V20.7017C392.801 20.754 392.69 20.8023 392.55 20.8466C392.413 20.8868 392.258 20.9251 392.085 20.9613C391.912 20.9935 391.739 21.0237 391.566 21.0518C391.393 21.076 391.236 21.0981 391.095 21.1183C390.793 21.1625 390.529 21.233 390.304 21.3295C390.078 21.4261 389.903 21.5569 389.779 21.7219C389.654 21.8829 389.592 22.0842 389.592 22.3256C389.592 22.6758 389.718 22.9434 389.972 23.1286C390.229 23.3097 390.555 23.4002 390.95 23.4002ZM402.363 15.7273V17.6591H396.778V15.7273H402.363ZM398.046 13.5057H400.618V22.1506C400.618 22.388 400.654 22.5732 400.727 22.706C400.799 22.8348 400.9 22.9253 401.028 22.9776C401.161 23.0299 401.314 23.0561 401.487 23.0561C401.608 23.0561 401.729 23.046 401.85 23.0259C401.97 23.0018 402.063 22.9837 402.127 22.9716L402.532 24.8853C402.403 24.9255 402.222 24.9718 401.988 25.0241C401.755 25.0805 401.471 25.1147 401.137 25.1268C400.517 25.1509 399.974 25.0684 399.507 24.8793C399.044 24.6901 398.684 24.3963 398.427 23.9979C398.169 23.5994 398.042 23.0964 398.046 22.4886V13.5057ZM408.128 25.1811C407.19 25.1811 406.379 24.9819 405.695 24.5835C405.015 24.181 404.49 23.6216 404.119 22.9052C403.749 22.1848 403.564 21.3497 403.564 20.3999C403.564 19.442 403.749 18.6049 404.119 17.8885C404.49 17.1681 405.015 16.6087 405.695 16.2102C406.379 15.8078 407.19 15.6065 408.128 15.6065C409.066 15.6065 409.875 15.8078 410.555 16.2102C411.239 16.6087 411.766 17.1681 412.136 17.8885C412.507 18.6049 412.692 19.442 412.692 20.3999C412.692 21.3497 412.507 22.1848 412.136 22.9052C411.766 23.6216 411.239 24.181 410.555 24.5835C409.875 24.9819 409.066 25.1811 408.128 25.1811ZM408.14 23.1889C408.567 23.1889 408.923 23.0682 409.209 22.8267C409.494 22.5812 409.71 22.2472 409.854 21.8246C410.003 21.402 410.078 20.921 410.078 20.3817C410.078 19.8424 410.003 19.3615 409.854 18.9389C409.71 18.5163 409.494 18.1823 409.209 17.9368C408.923 17.6913 408.567 17.5685 408.14 17.5685C407.709 17.5685 407.347 17.6913 407.053 17.9368C406.764 18.1823 406.544 18.5163 406.395 18.9389C406.25 19.3615 406.178 19.8424 406.178 20.3817C406.178 20.921 406.25 21.402 406.395 21.8246C406.544 22.2472 406.764 22.5812 407.053 22.8267C407.347 23.0682 407.709 23.1889 408.14 23.1889ZM407.204 14.532L408.484 11.7852H410.863L409.021 14.532H407.204ZM414.364 25V15.7273H416.857V17.3452H416.954C417.123 16.7696 417.407 16.335 417.805 16.0412C418.204 15.7434 418.662 15.5945 419.182 15.5945C419.31 15.5945 419.449 15.6025 419.598 15.6186C419.747 15.6347 419.878 15.6568 419.99 15.685V17.967C419.87 17.9308 419.703 17.8986 419.489 17.8704C419.276 17.8422 419.081 17.8281 418.904 17.8281C418.526 17.8281 418.187 17.9106 417.89 18.0756C417.596 18.2366 417.362 18.462 417.189 18.7518C417.02 19.0415 416.936 19.3756 416.936 19.7539V25H414.364ZM421.32 25V15.7273H423.892V25H421.32ZM422.612 14.532C422.23 14.532 421.902 14.4052 421.628 14.1516C421.358 13.8941 421.224 13.5862 421.224 13.228C421.224 12.8738 421.358 12.57 421.628 12.3164C421.902 12.0588 422.23 11.93 422.612 11.93C422.994 11.93 423.32 12.0588 423.59 12.3164C423.864 12.57 424.001 12.8738 424.001 13.228C424.001 13.5862 423.864 13.8941 423.59 14.1516C423.32 14.4052 422.994 14.532 422.612 14.532ZM430.142 25.1811C429.204 25.1811 428.393 24.9819 427.709 24.5835C427.029 24.181 426.503 23.6216 426.133 22.9052C425.763 22.1848 425.578 21.3497 425.578 20.3999C425.578 19.442 425.763 18.6049 426.133 17.8885C426.503 17.1681 427.029 16.6087 427.709 16.2102C428.393 15.8078 429.204 15.6065 430.142 15.6065C431.079 15.6065 431.888 15.8078 432.568 16.2102C433.253 16.6087 433.78 17.1681 434.15 17.8885C434.52 18.6049 434.706 19.442 434.706 20.3999C434.706 21.3497 434.52 22.1848 434.15 22.9052C433.78 23.6216 433.253 24.181 432.568 24.5835C431.888 24.9819 431.079 25.1811 430.142 25.1811ZM430.154 23.1889C430.58 23.1889 430.936 23.0682 431.222 22.8267C431.508 22.5812 431.723 22.2472 431.868 21.8246C432.017 21.402 432.092 20.921 432.092 20.3817C432.092 19.8424 432.017 19.3615 431.868 18.9389C431.723 18.5163 431.508 18.1823 431.222 17.9368C430.936 17.6913 430.58 17.5685 430.154 17.5685C429.723 17.5685 429.361 17.6913 429.067 17.9368C428.777 18.1823 428.558 18.5163 428.409 18.9389C428.264 19.3615 428.192 19.8424 428.192 20.3817C428.192 20.921 428.264 21.402 428.409 21.8246C428.558 22.2472 428.777 22.5812 429.067 22.8267C429.361 23.0682 429.723 23.1889 430.154 23.1889ZM444.093 18.3714L441.739 18.5163C441.698 18.3151 441.612 18.134 441.479 17.973C441.346 17.808 441.171 17.6772 440.954 17.5806C440.74 17.48 440.485 17.4297 440.187 17.4297C439.789 17.4297 439.453 17.5142 439.179 17.6832C438.905 17.8482 438.768 18.0696 438.768 18.3473C438.768 18.5687 438.857 18.7558 439.034 18.9087C439.211 19.0617 439.515 19.1844 439.946 19.277L441.624 19.6151C442.525 19.8002 443.197 20.098 443.64 20.5085C444.083 20.919 444.304 21.4583 444.304 22.1264C444.304 22.7341 444.125 23.2674 443.767 23.7262C443.413 24.185 442.926 24.5432 442.306 24.8008C441.69 25.0543 440.98 25.1811 440.175 25.1811C438.947 25.1811 437.969 24.9255 437.241 24.4144C436.517 23.8993 436.092 23.199 435.967 22.3136L438.497 22.1808C438.573 22.555 438.758 22.8408 439.052 23.038C439.346 23.2312 439.722 23.3278 440.181 23.3278C440.632 23.3278 440.994 23.2412 441.268 23.0682C441.545 22.8911 441.686 22.6637 441.69 22.386C441.686 22.1526 441.588 21.9614 441.394 21.8125C441.201 21.6596 440.903 21.5429 440.501 21.4624L438.895 21.1424C437.99 20.9613 437.315 20.6474 436.873 20.2006C436.434 19.7539 436.215 19.1844 436.215 18.4922C436.215 17.8965 436.376 17.3834 436.698 16.9528C437.024 16.5221 437.48 16.1901 438.068 15.9567C438.66 15.7232 439.352 15.6065 440.145 15.6065C441.316 15.6065 442.238 15.854 442.91 16.3491C443.586 16.8441 443.98 17.5182 444.093 18.3714ZM460.815 16.9648H458.171C458.123 16.6228 458.024 16.3189 457.875 16.0533C457.726 15.7836 457.535 15.5542 457.302 15.3651C457.068 15.1759 456.799 15.031 456.493 14.9304C456.191 14.8298 455.863 14.7795 455.509 14.7795C454.869 14.7795 454.311 14.9384 453.837 15.2564C453.362 15.5703 452.993 16.0291 452.732 16.6328C452.47 17.2325 452.339 17.9609 452.339 18.8182C452.339 19.6996 452.47 20.4401 452.732 21.0398C452.997 21.6394 453.368 22.0922 453.843 22.3981C454.317 22.704 454.867 22.8569 455.491 22.8569C455.841 22.8569 456.165 22.8106 456.463 22.718C456.764 22.6255 457.032 22.4906 457.266 22.3136C457.499 22.1325 457.692 21.9131 457.845 21.6555C458.002 21.398 458.111 21.1042 458.171 20.7741L460.815 20.7862C460.747 21.3537 460.576 21.901 460.302 22.4283C460.032 22.9515 459.668 23.4203 459.209 23.8349C458.755 24.2454 458.211 24.5714 457.579 24.8129C456.952 25.0503 456.241 25.169 455.448 25.169C454.346 25.169 453.36 24.9195 452.49 24.4205C451.625 23.9214 450.941 23.199 450.438 22.2532C449.939 21.3074 449.689 20.1624 449.689 18.8182C449.689 17.4699 449.943 16.3229 450.45 15.3771C450.957 14.4313 451.645 13.7109 452.514 13.2159C453.384 12.7169 454.362 12.4673 455.448 12.4673C456.165 12.4673 456.829 12.5679 457.441 12.7692C458.056 12.9704 458.602 13.2642 459.077 13.6506C459.552 14.0329 459.938 14.5018 460.236 15.0572C460.538 15.6126 460.731 16.2485 460.815 16.9648ZM466.831 25.1811C465.893 25.1811 465.082 24.9819 464.398 24.5835C463.718 24.181 463.193 23.6216 462.823 22.9052C462.452 22.1848 462.267 21.3497 462.267 20.3999C462.267 19.442 462.452 18.6049 462.823 17.8885C463.193 17.1681 463.718 16.6087 464.398 16.2102C465.082 15.8078 465.893 15.6065 466.831 15.6065C467.769 15.6065 468.578 15.8078 469.258 16.2102C469.942 16.6087 470.469 17.1681 470.84 17.8885C471.21 18.6049 471.395 19.442 471.395 20.3999C471.395 21.3497 471.21 22.1848 470.84 22.9052C470.469 23.6216 469.942 24.181 469.258 24.5835C468.578 24.9819 467.769 25.1811 466.831 25.1811ZM466.843 23.1889C467.27 23.1889 467.626 23.0682 467.912 22.8267C468.197 22.5812 468.413 22.2472 468.558 21.8246C468.707 21.402 468.781 20.921 468.781 20.3817C468.781 19.8424 468.707 19.3615 468.558 18.9389C468.413 18.5163 468.197 18.1823 467.912 17.9368C467.626 17.6913 467.27 17.5685 466.843 17.5685C466.412 17.5685 466.05 17.6913 465.756 17.9368C465.467 18.1823 465.247 18.5163 465.098 18.9389C464.954 19.3615 464.881 19.8424 464.881 20.3817C464.881 20.921 464.954 21.402 465.098 21.8246C465.247 22.2472 465.467 22.5812 465.756 22.8267C466.05 23.0682 466.412 23.1889 466.843 23.1889ZM475.639 19.6392V25H473.067V15.7273H475.518V17.3633H475.627C475.832 16.824 476.176 16.3974 476.659 16.0835C477.142 15.7655 477.728 15.6065 478.416 15.6065C479.06 15.6065 479.621 15.7474 480.1 16.0291C480.579 16.3108 480.951 16.7133 481.217 17.2365C481.483 17.7557 481.615 18.3755 481.615 19.0959V25H479.044V19.5547C479.048 18.9872 478.903 18.5445 478.609 18.2266C478.315 17.9046 477.911 17.7436 477.396 17.7436C477.05 17.7436 476.744 17.8181 476.478 17.967C476.216 18.1159 476.011 18.3332 475.862 18.619C475.717 18.9007 475.643 19.2408 475.639 19.6392ZM487.832 25.1811C486.882 25.1811 486.065 24.9799 485.381 24.5774C484.701 24.1709 484.178 23.6075 483.811 22.8871C483.449 22.1667 483.268 21.3376 483.268 20.3999C483.268 19.45 483.451 18.617 483.817 17.9006C484.188 17.1802 484.713 16.6187 485.393 16.2163C486.073 15.8098 486.882 15.6065 487.82 15.6065C488.629 15.6065 489.337 15.7534 489.945 16.0472C490.553 16.341 491.034 16.7536 491.388 17.2848C491.742 17.8161 491.937 18.4399 491.973 19.1562H489.547C489.478 18.6934 489.297 18.3211 489.003 18.0394C488.713 17.7537 488.333 17.6108 487.862 17.6108C487.464 17.6108 487.116 17.7195 486.818 17.9368C486.524 18.1501 486.295 18.462 486.13 18.8725C485.965 19.283 485.882 19.7801 485.882 20.3636C485.882 20.9553 485.963 21.4583 486.124 21.8729C486.289 22.2874 486.52 22.6033 486.818 22.8207C487.116 23.038 487.464 23.1467 487.862 23.1467C488.156 23.1467 488.42 23.0863 488.653 22.9656C488.891 22.8448 489.086 22.6697 489.239 22.4403C489.396 22.2069 489.498 21.9272 489.547 21.6012H491.973C491.933 22.3095 491.74 22.9334 491.394 23.4727C491.052 24.0079 490.579 24.4265 489.975 24.7283C489.371 25.0302 488.657 25.1811 487.832 25.1811ZM499.566 21.0518V15.7273H502.138V25H499.669V23.3157H499.572C499.363 23.859 499.015 24.2957 498.528 24.6257C498.045 24.9557 497.455 25.1207 496.759 25.1207C496.139 25.1207 495.594 24.9799 495.123 24.6982C494.652 24.4164 494.284 24.016 494.018 23.4968C493.757 22.9776 493.624 22.3558 493.62 21.6314V15.7273H496.192V21.1726C496.196 21.7199 496.343 22.1526 496.632 22.4705C496.922 22.7885 497.311 22.9474 497.797 22.9474C498.107 22.9474 498.397 22.877 498.667 22.7362C498.936 22.5913 499.154 22.378 499.319 22.0962C499.488 21.8145 499.57 21.4664 499.566 21.0518ZM504.195 25V15.7273H506.688V17.3452H506.785C506.954 16.7696 507.238 16.335 507.636 16.0412C508.035 15.7434 508.493 15.5945 509.013 15.5945C509.141 15.5945 509.28 15.6025 509.429 15.6186C509.578 15.6347 509.709 15.6568 509.822 15.685V17.967C509.701 17.9308 509.534 17.8986 509.32 17.8704C509.107 17.8422 508.912 17.8281 508.735 17.8281C508.357 17.8281 508.019 17.9106 507.721 18.0756C507.427 18.2366 507.193 18.462 507.02 18.7518C506.851 19.0415 506.767 19.3756 506.767 19.7539V25H504.195ZM518.866 18.3714L516.512 18.5163C516.472 18.3151 516.385 18.134 516.252 17.973C516.12 17.808 515.945 17.6772 515.727 17.5806C515.514 17.48 515.258 17.4297 514.96 17.4297C514.562 17.4297 514.226 17.5142 513.952 17.6832C513.679 17.8482 513.542 18.0696 513.542 18.3473C513.542 18.5687 513.63 18.7558 513.807 18.9087C513.985 19.0617 514.288 19.1844 514.719 19.277L516.397 19.6151C517.299 19.8002 517.971 20.098 518.414 20.5085C518.856 20.919 519.078 21.4583 519.078 22.1264C519.078 22.7341 518.899 23.2674 518.54 23.7262C518.186 24.185 517.699 24.5432 517.079 24.8008C516.464 25.0543 515.753 25.1811 514.948 25.1811C513.721 25.1811 512.743 24.9255 512.014 24.4144C511.29 23.8993 510.865 23.199 510.741 22.3136L513.27 22.1808C513.347 22.555 513.532 22.8408 513.826 23.038C514.119 23.2312 514.496 23.3278 514.954 23.3278C515.405 23.3278 515.767 23.2412 516.041 23.0682C516.319 22.8911 516.46 22.6637 516.464 22.386C516.46 22.1526 516.361 21.9614 516.168 21.8125C515.975 21.6596 515.677 21.5429 515.274 21.4624L513.669 21.1424C512.763 20.9613 512.089 20.6474 511.646 20.2006C511.208 19.7539 510.988 19.1844 510.988 18.4922C510.988 17.8965 511.149 17.3834 511.471 16.9528C511.797 16.5221 512.254 16.1901 512.842 15.9567C513.433 15.7232 514.125 15.6065 514.918 15.6065C516.089 15.6065 517.011 15.854 517.683 16.3491C518.359 16.8441 518.754 17.5182 518.866 18.3714ZM524.887 25.1811C523.949 25.1811 523.138 24.9819 522.454 24.5835C521.774 24.181 521.248 23.6216 520.878 22.9052C520.508 22.1848 520.323 21.3497 520.323 20.3999C520.323 19.442 520.508 18.6049 520.878 17.8885C521.248 17.1681 521.774 16.6087 522.454 16.2102C523.138 15.8078 523.949 15.6065 524.887 15.6065C525.824 15.6065 526.633 15.8078 527.314 16.2102C527.998 16.6087 528.525 17.1681 528.895 17.8885C529.266 18.6049 529.451 19.442 529.451 20.3999C529.451 21.3497 529.266 22.1848 528.895 22.9052C528.525 23.6216 527.998 24.181 527.314 24.5835C526.633 24.9819 525.824 25.1811 524.887 25.1811ZM524.899 23.1889C525.325 23.1889 525.682 23.0682 525.967 22.8267C526.253 22.5812 526.468 22.2472 526.613 21.8246C526.762 21.402 526.837 20.921 526.837 20.3817C526.837 19.8424 526.762 19.3615 526.613 18.9389C526.468 18.5163 526.253 18.1823 525.967 17.9368C525.682 17.6913 525.325 17.5685 524.899 17.5685C524.468 17.5685 524.106 17.6913 523.812 17.9368C523.522 18.1823 523.303 18.5163 523.154 18.9389C523.009 19.3615 522.937 19.8424 522.937 20.3817C522.937 20.921 523.009 21.402 523.154 21.8246C523.303 22.2472 523.522 22.5812 523.812 22.8267C524.106 23.0682 524.468 23.1889 524.899 23.1889ZM538.838 18.3714L536.484 18.5163C536.443 18.3151 536.357 18.134 536.224 17.973C536.091 17.808 535.916 17.6772 535.699 17.5806C535.486 17.48 535.23 17.4297 534.932 17.4297C534.534 17.4297 534.198 17.5142 533.924 17.6832C533.65 17.8482 533.513 18.0696 533.513 18.3473C533.513 18.5687 533.602 18.7558 533.779 18.9087C533.956 19.0617 534.26 19.1844 534.691 19.277L536.369 19.6151C537.27 19.8002 537.943 20.098 538.385 20.5085C538.828 20.919 539.049 21.4583 539.049 22.1264C539.049 22.7341 538.87 23.2674 538.512 23.7262C538.158 24.185 537.671 24.5432 537.051 24.8008C536.435 25.0543 535.725 25.1811 534.92 25.1811C533.693 25.1811 532.715 24.9255 531.986 24.4144C531.262 23.8993 530.837 23.199 530.712 22.3136L533.242 22.1808C533.318 22.555 533.503 22.8408 533.797 23.038C534.091 23.2312 534.467 23.3278 534.926 23.3278C535.377 23.3278 535.739 23.2412 536.013 23.0682C536.29 22.8911 536.431 22.6637 536.435 22.386C536.431 22.1526 536.333 21.9614 536.14 21.8125C535.946 21.6596 535.649 21.5429 535.246 21.4624L533.64 21.1424C532.735 20.9613 532.061 20.6474 531.618 20.2006C531.179 19.7539 530.96 19.1844 530.96 18.4922C530.96 17.8965 531.121 17.3834 531.443 16.9528C531.769 16.5221 532.226 16.1901 532.813 15.9567C533.405 15.7232 534.097 15.6065 534.89 15.6065C536.061 15.6065 536.983 15.854 537.655 16.3491C538.331 16.8441 538.725 17.5182 538.838 18.3714Z" fill="white"/>
</svg>
